<svg xmlns="http://www.w3.org/2000/svg" width="128" height="128" viewBox="0 0 128 128"><title>us</title><circle cx="64" cy="64" r="55" fill="#fff"/><path d="M64,11a53,53,0,1,0,53,53A52.9838,52.9838,0,0,0,64,11Zm.94,90.0928A27.4488,27.4488,0,0,1,37.2469,76.87a23.3858,23.3858,0,0,1,1.5907-11.352c3.9045-10.1951,9.8336-19.3056,16.0518-28.1992,2.0969-2.9645,4.266-5.8568,6.5075-8.749,1.7353-2.2415,3.543-2.2415,5.206,0,7.52,9.8336,14.5334,19.884,20.0286,31.0191,3.0368,6.2183,4.266,10.5566,4.266,15.4734A26.2332,26.2332,0,0,1,64.94,101.0928Zm4.1214-7.5921c-2.2415,0-3.543-1.0123-3.6153-2.82,0-1.7353,1.1569-2.82,3.2538-2.9645a9.5951,9.5951,0,0,0,9.1828-9.1828c.2169-2.0969,1.3015-3.3261,2.9645-3.2538,1.7353.0723,2.82,1.3738,2.7476,3.6153C83.6671,86.6317,76.7981,93.4284,69.0614,93.5007Z" fill="#00579b"/></svg>