<svg xmlns="http://www.w3.org/2000/svg" width="128" height="128" viewBox="0 0 128 128"><title>us</title><path d="M76.19,67.6011A27.6175,27.6175,0,0,0,64,64.8032,27.9787,27.9787,0,0,0,37.7891,83.1489l-.5127,1.41L6.834,73.478l.5137-1.41A60.3134,60.3134,0,0,1,93.0029,39.8413Zm14.5332,16.958,30.4424-11.08-.5137-1.4092A60.65,60.65,0,0,0,95.9678,41.5845l-1.4526,2.63a57.1818,57.1818,0,0,1,22.7866,27.4786L92.4824,80.7261A32.0832,32.0832,0,0,0,81.7172,67.3832l-1.4614,2.6456a27.8367,27.8367,0,0,1,9.9551,13.12ZM65.7324,94.5835,96.8,37.1448a.1869.1869,0,0,0-.3235-.1868L62.2676,92.5835a2,2,0,0,0,3.4648,2Z" fill="#2f2f2f"/></svg>