<svg xmlns="http://www.w3.org/2000/svg" width="128" height="128" viewBox="0 0 128 128"><title>us</title><path d="M40.8039,40.5a5.2766,5.2766,0,0,0,9.2864,0,3.9567,3.9567,0,0,1,6.945,0,5.381,5.381,0,0,0,2.2224,2.18h.01V30.67H44.5541v-3H59.2675V11H35.4562V38.91a3.8958,3.8958,0,0,1,1.8752-.47A3.9561,3.9561,0,0,1,40.8039,40.5ZM77.91,50.27a11.2,11.2,0,0,0,8.1156-3.49,11.1813,11.1813,0,0,0,16.2315,0,11.1994,11.1994,0,0,0,8.1156,3.49,2,2,0,0,0,0-4,7.2758,7.2758,0,0,1-6.3794-3.8,1.9784,1.9784,0,0,0-3.4725,0,7.255,7.255,0,0,1-12.759,0,1.9784,1.9784,0,0,0-3.4725,0,7.2549,7.2549,0,0,1-12.7589,0,1.9784,1.9784,0,0,0-3.4725,0,7.2549,7.2549,0,0,1-12.7589,0,1.9784,1.9784,0,0,0-3.4725,0,7.2549,7.2549,0,0,1-12.7589,0,1.9784,1.9784,0,0,0-3.4725,0,7.2549,7.2549,0,0,1-12.7589,0,1.9784,1.9784,0,0,0-3.4725,0,7.2877,7.2877,0,0,1-6.38,3.8,2,2,0,0,0,0,4A11.2,11.2,0,0,0,21.1,46.78a11.1682,11.1682,0,0,0,14.3562,1.58V117H59.2675V101.33H44.5541v-3H59.2675V83.67H44.5541v-3H59.2675V66H44.5541V63H59.2675V50a10.7369,10.7369,0,0,0,2.4108.27,11.2,11.2,0,0,0,8.1157-3.49A11.2,11.2,0,0,0,77.91,50.27Zm37.1059,38.58a7.2721,7.2721,0,0,1-6.3694-3.8,1.9867,1.9867,0,0,0-3.4824,0,7.2467,7.2467,0,0,1-12.7491,0,1.9866,1.9866,0,0,0-3.4823,0,7.2466,7.2466,0,0,1-12.749,0,1.9867,1.9867,0,0,0-3.4824,0,7.2721,7.2721,0,0,1-6.37,3.8,2,2,0,0,0,0,4,11.2169,11.2169,0,0,0,8.1157-3.49,11.181,11.181,0,0,0,16.2312,0,11.17,11.17,0,0,0,16.2216,0,11.2166,11.2166,0,0,0,8.1156,3.49,2,2,0,0,0,0-4ZM98.8637,64.03a1.9867,1.9867,0,0,0-3.4823,0,7.2466,7.2466,0,0,1-12.749,0,1.9868,1.9868,0,0,0-3.4824,0,7.2524,7.2524,0,0,1-6.37,3.8,2,2,0,0,0,0,4,11.2169,11.2169,0,0,0,8.1157-3.49,11.181,11.181,0,0,0,16.2312,0,11.1947,11.1947,0,0,0,8.1059,3.49,2,2,0,0,0,0-4A7.2524,7.2524,0,0,1,98.8637,64.03Z" fill="#2f2f2f"/></svg>