<?xml version="1.0" standalone="no"?>
<!DOCTYPE svg PUBLIC "-//W3C//DTD SVG 20010904//EN"
 "http://www.w3.org/TR/2001/REC-SVG-20010904/DTD/svg10.dtd">
<svg version="1.0" xmlns="http://www.w3.org/2000/svg"
 width="700.000000pt" height="700.000000pt" viewBox="0 0 700.000000 700.000000"
 preserveAspectRatio="xMidYMid meet">
<metadata>
Created by potrace 1.11, written by Peter Selinger 2001-2013
</metadata>
<g transform="translate(0.000000,700.000000) scale(0.100000,-0.100000)"
fill="#000000" stroke="none">
<path d="M3407 6814 c-1 -1 -49 -4 -107 -8 -58 -3 -116 -8 -129 -11 -12 -2
-43 -7 -67 -9 -24 -3 -54 -8 -66 -11 -13 -2 -34 -7 -48 -9 -258 -43 -591 -181
-850 -351 -506 -334 -853 -834 -985 -1415 -23 -101 -24 -106 -30 -159 -3 -25
-10 -75 -15 -111 -9 -69 -6 -481 5 -540 33 -187 59 -295 112 -455 35 -108 115
-317 155 -405 121 -266 264 -547 391 -770 33 -58 71 -125 85 -149 53 -96 241
-403 319 -524 108 -167 356 -538 410 -614 32 -45 72 -101 88 -125 170 -242
526 -730 588 -803 9 -11 30 -39 47 -63 40 -56 114 -92 188 -92 57 0 107 21
162 66 76 65 704 931 995 1374 81 124 165 250 185 280 20 30 40 62 43 70 4 8
45 76 91 150 263 421 523 912 671 1265 184 442 256 738 249 1039 -1 83 -5 171
-8 196 -8 74 -17 144 -21 160 -2 8 -7 29 -10 45 -2 17 -7 41 -10 55 -3 14 -8
36 -11 50 -23 111 -102 342 -160 465 -117 251 -300 509 -496 702 -106 105
-267 242 -285 243 -6 0 -13 4 -15 9 -6 18 -214 142 -343 206 -71 35 -174 79
-227 99 -144 53 -389 113 -538 131 -67 8 -358 23 -363 19z m343 -389 c39 -5
86 -13 165 -29 57 -12 210 -58 280 -84 291 -109 559 -290 760 -512 28 -30 53
-57 56 -60 21 -19 137 -183 181 -256 134 -223 228 -484 269 -749 16 -104 16
-439 0 -535 -6 -41 -14 -89 -17 -107 -7 -45 -67 -256 -94 -328 -33 -91 -101
-230 -164 -333 -301 -496 -795 -828 -1381 -927 -60 -10 -212 -19 -315 -19
-174 0 -309 16 -455 55 -44 11 -90 23 -103 25 -33 6 -240 88 -303 119 -187 94
-371 227 -524 380 -209 208 -360 443 -464 724 -32 86 -76 249 -86 317 -3 22
-8 45 -10 52 -11 32 -20 182 -19 332 3 673 357 1297 941 1658 244 150 562 258
823 279 41 3 77 7 79 10 6 5 324 -5 381 -12z"/>
<path d="M2696 5781 c-6 -11 -4 -311 3 -312 3 -1 130 -2 281 -3 151 -2 295 -6
320 -10 111 -20 231 -110 283 -212 86 -170 58 -388 -66 -521 -20 -21 -26 -36
-21 -45 23 -39 228 -308 234 -308 10 0 119 108 162 161 52 64 95 149 125 247
23 77 26 105 27 247 1 188 -11 243 -79 380 -67 137 -183 259 -288 305 -59 26
-184 57 -267 65 -87 9 -709 15 -714 6z"/>
<path d="M2748 4610 l-47 -5 520 -745 c287 -410 531 -760 542 -777 l22 -33
258 0 c204 0 257 3 251 13 -5 6 -35 49 -69 95 -33 46 -67 93 -75 106 -13 19
-153 213 -301 416 -26 36 -176 243 -333 460 -156 217 -288 400 -293 405 -5 6
-19 25 -31 42 l-23 33 -187 -3 c-103 -1 -208 -4 -234 -7z"/>
</g>
</svg>
