<?xml version="1.0" standalone="no"?>
<!DOCTYPE svg PUBLIC "-//W3C//DTD SVG 20010904//EN"
 "http://www.w3.org/TR/2001/REC-SVG-20010904/DTD/svg10.dtd">
<svg version="1.0" xmlns="http://www.w3.org/2000/svg"
 width="700.000000pt" height="700.000000pt" viewBox="0 0 700.000000 700.000000"
 preserveAspectRatio="xMidYMid meet">
<metadata>
Created by potrace 1.11, written by Peter Selinger 2001-2013
</metadata>
<g transform="translate(0.000000,700.000000) scale(0.100000,-0.100000)"
fill="#000000" stroke="none">
<path d="M3497 6734 c-1 -1 -47 -4 -102 -8 -199 -13 -475 -85 -663 -173 -519
-242 -890 -683 -1050 -1248 -59 -207 -79 -446 -58 -695 4 -52 9 -97 11 -100 1
-3 6 -27 9 -55 34 -256 208 -642 393 -870 10 -12 987 -1317 1255 -1675 109
-146 205 -274 213 -285 8 -10 15 -23 15 -28 0 -32 62 43 326 393 164 217 302
400 306 405 5 6 56 73 114 150 58 77 110 147 117 155 7 9 39 51 72 95 32 44
63 85 67 90 5 6 56 73 115 150 535 707 590 786 671 956 36 77 99 240 107 279
2 8 8 35 15 60 14 51 17 68 26 124 3 22 7 43 9 46 7 11 19 197 18 285 -3 787
-447 1476 -1150 1783 -164 72 -357 128 -503 146 -110 14 -324 27 -333 20z
m1690 -1943 l42 -1 -4 -97 c-12 -245 -60 -424 -175 -652 -243 -483 -641 -790
-1165 -896 -44 -9 -98 -18 -120 -21 -22 -3 -53 -7 -70 -9 -44 -7 -304 -6 -345
0 -247 39 -376 78 -555 167 -111 55 -278 164 -341 223 -133 123 -198 194 -302
335 -122 165 -250 488 -277 700 -4 30 -9 62 -10 71 -4 22 -7 86 -6 136 l1 42
68 3 c53 2 3100 1 3259 -1z"/>
<path d="M3500 998 c-117 -17 -229 -98 -279 -200 -58 -121 -45 -273 34 -381
169 -229 534 -183 636 82 25 62 33 184 17 235 -56 176 -231 290 -408 264z"/>
</g>
</svg>
