<svg xmlns="http://www.w3.org/2000/svg" viewBox="0 0 128 128"><defs><style>.a{fill:#fff;}.b{fill:#00579b;}</style></defs><title>id</title><circle class="a" cx="64" cy="64" r="55"/><path class="b" d="M64,11a53,53,0,1,0,53,53A52.984,52.984,0,0,0,64,11Zm.94,90.093A27.449,27.449,0,0,1,37.247,76.87a23.386,23.386,0,0,1,1.591-11.352c3.9-10.2,9.834-19.306,16.052-28.2,2.1-2.965,4.266-5.857,6.508-8.749,1.735-2.241,3.543-2.241,5.206,0,7.52,9.834,14.533,19.884,20.029,31.019C89.668,65.808,90.9,70.146,90.9,75.063A26.233,26.233,0,0,1,64.94,101.093ZM69.061,93.5c-2.241,0-3.543-1.012-3.615-2.82,0-1.735,1.157-2.82,3.254-2.965a9.6,9.6,0,0,0,9.183-9.183c.217-2.1,1.3-3.326,2.965-3.254,1.735.072,2.82,1.374,2.748,3.615C83.667,86.632,76.8,93.428,69.061,93.5Z"/></svg>