<svg xmlns="http://www.w3.org/2000/svg" viewBox="0 0 128 128"><defs><style>.a{fill:#2f2f2f;}</style></defs><title>id</title><path class="a" d="M68.59,57.45a7.626,7.626,0,0,0-1.21-.7,7.991,7.991,0,0,0-6.76,0,7.626,7.626,0,0,0-1.21.7,8,8,0,0,0-3.38,5.85c-.02.23-.03.46-.03.7s.01.47.03.7a8,8,0,0,0,3.38,5.85,7.626,7.626,0,0,0,1.21.7,7.991,7.991,0,0,0,6.76,0,7.626,7.626,0,0,0,1.21-.7,8,8,0,0,0,3.38-5.85c.02-.23.03-.46.03-.7s-.01-.47-.03-.7A8,8,0,0,0,68.59,57.45ZM76.52,26A40.078,40.078,0,0,1,99.93,46.41H120V26ZM64,26A38.029,38.029,0,0,0,30.35,81.69h.02l-.01.01a.01.01,0,0,0-.01-.01H8V102H64a38,38,0,0,0,0-76ZM77.76,83.65l-4.58-6.54a15.649,15.649,0,0,1-2.42,1.39l3.39,7.25a24.019,24.019,0,0,1-20.3,0l3.39-7.25a15.649,15.649,0,0,1-2.42-1.39l-4.58,6.54A23.948,23.948,0,0,1,40.09,66.09l7.97-.7c-.04-.46-.06-.92-.06-1.39s.02-.93.06-1.39l-7.97-.7A23.948,23.948,0,0,1,50.24,44.35l4.58,6.54a15.649,15.649,0,0,1,2.42-1.39l-3.39-7.25a24.019,24.019,0,0,1,20.3,0L70.76,49.5a15.649,15.649,0,0,1,2.42,1.39l4.58-6.54A23.948,23.948,0,0,1,87.91,61.91l-7.97.7c.04.46.06.92.06,1.39s-.02.93-.06,1.39l7.97.7A23.948,23.948,0,0,1,77.76,83.65Z"/></svg>