<?xml version="1.0" encoding="utf-8"?>
<!-- Generator: Adobe Illustrator 21.0.2, SVG Export Plug-In . SVG Version: 6.00 Build 0)  -->
<!DOCTYPE svg PUBLIC "-//W3C//DTD SVG 1.1//EN" "http://www.w3.org/Graphics/SVG/1.1/DTD/svg11.dtd">
<svg version="1.1" id="Layer_1" xmlns="http://www.w3.org/2000/svg" xmlns:xlink="http://www.w3.org/1999/xlink" x="0px" y="0px"
	 viewBox="0 0 149 63" style="enable-background:new 0 0 149 63;" xml:space="preserve">
<style type="text/css">
	.st0{fill:#383838;}
	.st1{fill:#E17426;}
	.st2{fill:#99B4D9;}
	.st3{fill:#AFAFAF;}
</style>
<g id="Layer_1_1_">
</g>
<path class="st0" d="M143,59.3c-0.1,0-0.3,0-0.4,0c-45.8,0-91.6,0-137.4,0c-0.6,0-0.5,0-0.5-0.5c0-3.5,0-6.9,0-10.4
	c0-0.4,0.1-0.5,0.5-0.5c34.9,0,69.9,0,104.8,0c10.9,0,21.8,0,32.6,0c0.2,0,0.3,0,0.5,0C143,51.6,143,55.4,143,59.3z M95.2,50.2
	c-0.6-0.2-1.2-0.1-1.8,0l-0.1,0.1c-0.1,0.1-0.1,0.2-0.1,0.3c0,2.1,0,4.1,0,6.2c0,0.1,0,0.3,0.1,0.3c0.5,0,1,0,1.6,0
	c0.2,0,0.3,0,0.3-0.3C95.2,54.6,95.2,52.4,95.2,50.2z M36.7,55.9c-0.1-0.1-0.3-0.1-0.4-0.1c-1,0-2,0-3,0c-0.3,0-0.4-0.1-0.4-0.4
	c0-1.5,0-3.1,0-4.6c0-0.1,0.1-0.3-0.1-0.4l-0.1-0.1c-0.6-0.1-1.2-0.2-1.8,0c0,1.9,0,3.8,0,5.8c0,0.4-0.1,0.8,0.1,1s0.7,0.1,1.1,0.1
	c1.5,0,3,0,4.4,0c0.1,0,0.3,0.1,0.3-0.1C36.7,56.6,36.9,56.2,36.7,55.9z M13.4,53c0-0.4,0-0.8,0-1.2c0-0.3,0.1-0.4,0.3-0.3
	c0.9,0,1.8,0,2.8,0c0.1,0,0.3,0.1,0.3-0.1c0-0.4,0.1-0.8-0.1-1.1c-0.1-0.1-0.2-0.1-0.3-0.1c-1.5,0-3,0-4.5,0c-0.1,0-0.2,0-0.3,0.1
	l-0.1,0.1c-0.1,0.1-0.1,0.2-0.1,0.3c0,2.1,0,4.1,0,6.2c0,0.1,0,0.3,0.1,0.3c0.5,0,1,0,1.5,0c0.3,0,0.4-0.1,0.4-0.4
	c0-0.7,0-1.4,0-2.2c0-0.3,0.1-0.3,0.3-0.3c0.9,0,1.9,0,2.8,0c0.1,0,0.3,0.1,0.3-0.1c0-0.4,0.1-0.8-0.1-1.1C16.6,53,16.4,53,16.3,53
	C15.4,53,14.4,53,13.4,53z M132.2,50.2C132.2,50.3,132.2,50.3,132.2,50.2c-0.8,1.9-1.6,3.6-2.4,5.4c-0.2,0.5-0.4,1-0.6,1.5
	c0.4,0,0.7,0,1,0c0.8,0.1,1.3-0.1,1.4-0.9v-0.1c0.1-0.2,0.2-0.3,0.5-0.3c0.6,0,1.2,0,1.9,0c0.4,0,0.9-0.1,1.2,0
	c0.3,0.2,0.4,0.7,0.6,1c0.1,0.2,0.2,0.3,0.4,0.3c0.6,0,1.2,0,1.8,0c0-0.1-0.1-0.2-0.1-0.3c-0.9-1.7-1.7-3.5-2.6-5.2
	c-0.2-0.5-0.4-1-0.8-1.4c-0.6-0.2-1.2,0-1.7-0.1C132.5,50.1,132.3,50.1,132.2,50.2z M74.9,54.3c0.8-0.1,1.3,0.2,1.6,0.8
	c0.3,0.5,0.6,1.1,0.9,1.7c0.1,0.1,0.1,0.3,0.3,0.3c0.6,0,1.2,0,1.9,0c-0.3-0.9-1.4-2.8-2-3.2c0-0.1,0.1-0.1,0.2-0.1
	c1.5-0.7,1.4-2.3,0.2-3.1c-0.4-0.3-0.8-0.3-1.2-0.5c-0.1-0.1-0.1-0.1-0.2-0.1c-1.1,0-2.2,0-3.3,0c-0.1,0-0.2,0-0.3,0.1
	c0,2.2,0,4.4,0,6.6c0,0.3,0.1,0.3,0.3,0.3c0.5,0,1,0,1.6,0c0.2-0.1,0.1-0.3,0.1-0.4C74.9,55.9,74.9,55.1,74.9,54.3z M109.5,50.2
	c0,2.2,0,4.4,0,6.6c0,0.2,0,0.3,0.3,0.3s0.7,0,1,0c1.3,0,2.6,0.1,3.8-0.3c1.6-0.5,2.5-1.5,2.5-3.2c0-1.5-0.9-2.6-2.3-3.1
	c-0.5-0.2-1-0.2-1.4-0.3c-0.1-0.1-0.1-0.1-0.2-0.1c-1.2,0-2.3,0-3.5,0C109.6,50.1,109.5,50.1,109.5,50.2z M54.7,50.1
	c-0.8,0-1.6,0.1-2.3,0.5c-1.2,0.6-2,1.6-2.1,3c-0.1,1.5,1,2.7,2.3,3.2c0.9,0.4,1.9,0.5,3,0.3c1.1-0.1,2-0.5,2.8-1.3
	c1.2-1.3,1.1-3,0-4.3C57.3,50.5,56,50.2,54.7,50.1z"/>
<path class="st0" d="M63.6,4.4c0.4,1.1,0.7,2.2,1.1,3.4c0.6,1.9,1.2,3.8,1.8,5.7c0.9,2.8,1.8,5.7,2.7,8.6c0.7-2.1,1.3-4.2,2-6.3
	c0.7-2.2,1.4-4.3,2.1-6.5c0.5-1.6,1-3.2,1.5-4.7c0-0.1,0.1-0.1,0.1-0.1c1,0,1.9,0,2.9,0c0.4,1.1,0.7,2.2,1.1,3.3
	c0.3,0.8,0.5,1.6,0.8,2.4c0.9,2.8,1.8,5.7,2.8,8.5c0.4,1.1,0.7,2.2,1.1,3.4c0.2-0.2,0.2-0.5,0.3-0.7c0.7-2.1,1.3-4.2,2-6.2
	c0.7-2.3,1.4-4.5,2.1-6.8c0.4-1.2,0.7-2.4,1.1-3.6c0-0.1,0.1-0.2,0.1-0.3c1,0,2,0,3,0c0.1,0.4-0.1,0.7-0.2,1
	c-0.7,2.1-1.4,4.3-2.1,6.4c-0.5,1.6-1,3.3-1.6,4.9c-0.8,2.5-1.6,4.9-2.4,7.4c-0.5,1.7-1.1,3.4-1.6,5c-0.1,0.3-0.2,0.6-0.3,0.9
	c-0.1,0.3-0.1,0.4-0.5,0.4c-0.3,0-0.4-0.2-0.5-0.4c-0.6-2-1.3-3.9-1.9-5.9c-0.7-2.3-1.4-4.5-2.2-6.8c-0.7-2.3-1.5-4.7-2.3-7
	c-0.1-0.3-0.2-0.5-0.3-0.9c-0.3,0.8-0.5,1.6-0.8,2.3c-0.8,2.3-1.5,4.6-2.2,6.9c-0.6,2.1-1.3,4.1-2,6.2c-0.6,1.7-1.1,3.5-1.7,5.2
	c-0.1,0.2-0.2,0.4-0.5,0.4s-0.4-0.1-0.5-0.4c-0.8-2.4-1.6-4.8-2.3-7.2c-0.4-1.1-0.7-2.2-1.1-3.3c-0.4-1.2-0.8-2.4-1.1-3.6
	c0.2-0.1,0.4-0.1,0.6-0.1s0.4-0.1,0.4-0.3c0-0.3,0.1-0.4,0.5-0.5C65.3,15,65.2,15,65,14.9c-0.1,0-0.1,0-0.2-0.1
	c-0.1-0.3-0.1-0.4-0.4-0.4c-0.6,0-1-0.3-1.1-0.9c-0.5-1.5-0.9-3-1.4-4.5c-0.5-1.4-0.9-2.8-1.4-4.2c-0.2-0.7-0.2-0.6,0.4-0.6
	c0.1,0,0.1,0,0.2,0c0.1,0.1,0.3,0.1,0.4,0.1C62.3,4.4,63,4.4,63.6,4.4z"/>
<path class="st0" d="M132.1,4.8c1.7,0,3.3,0.3,4.8,1.1c1.1,0.6,2.1,1.4,2.9,2.3c0.7,0.8,1.2,1.6,1.6,2.5c0.5,1,0.9,2,1.1,3.1
	c0.3,1.5,0.5,3.1,0.4,4.6c-0.1,1.8-0.5,3.6-1.2,5.3c-0.4,0.9-0.9,1.8-1.5,2.6c-0.7,1-1.6,1.8-2.6,2.6c-0.9,0.7-2,1-3,1.4
	c-0.6,0.2-1.3,0.2-1.9,0.3c-3,0-5.9,0-8.9,0c0-0.5,0-1,0-1.5c0-7.9,0-15.8,0-23.8c0-0.2,0-0.3,0-0.5C126.7,4.8,129.4,4.8,132.1,4.8z
	 M127,27.2c2-0.1,4,0.1,6.1-0.1c1-0.1,1.9-0.5,2.7-0.9c1.1-0.6,1.9-1.5,2.5-2.5c1-1.7,1.6-3.5,1.6-5.5c0-0.7,0-1.3-0.1-2
	c-0.1-1.3-0.5-2.5-1-3.6c-0.6-1.2-1.5-2.3-2.7-3c-0.9-0.5-1.8-0.8-2.8-1.1c-0.4-0.1-0.7,0-1.1-0.2c-0.1-0.1-0.2-0.1-0.3-0.1
	c-1.5,0-3,0-4.5,0c-0.1,0-0.2,0-0.3,0.1L127,8.4c-0.1,0.1-0.1,0.3-0.1,0.4c0,6,0,12,0,18C126.9,26.9,126.8,27.1,127,27.2z"/>
<path class="st0" d="M11.2,4.8c1.3,0,2.5,0.3,3.6,1c1.3,0.9,2.1,2.2,2.5,3.7c0.1,0.6,0.2,1.1,0.2,1.7c0,1.3-0.2,2.5-0.8,3.6
	c-0.5,0.9-1.3,1.5-2.2,2l-0.1,0.1c0.6,0.2,1.1,0.5,1.7,0.7c0.3,0.1,0.5,0.3,0.7,0.5c0.3,0.3,0.5,0.6,0.8,0.8
	c0.3,0.2,0.4,0.5,0.6,0.8c0.1,0.3,0.2,0.6,0.4,0.8c0.5,0.6,0.4,1.4,0.6,2.1c0.1,0.4,0.2,0.8,0.1,1.1c-0.1,0.6-0.1,1.2-0.2,1.8
	c-0.4,1.5-1.1,2.9-2.5,3.8c-1,0.7-2.2,1.2-3.5,1.2c-2.5,0-5,0-7.5,0c-0.3,0-0.5-0.1-0.5-0.4c0-8.3,0-16.6,0-24.9
	c0-0.4,0.1-0.4,0.5-0.4C7.5,4.8,9.3,4.8,11.2,4.8z M8.1,8.2c0,2.5,0,5.1,0,7.6c0.6,0.2,1.2,0.1,1.8,0c0.3-0.1,0.7-0.1,1.1-0.2
	c0.9-0.1,1.7-0.4,2.3-1c0.8-0.8,1-1.9,1-3c0-0.7-0.2-1.4-0.6-2c-0.3-0.6-0.9-0.9-1.5-1.1c-0.4-0.1-0.8-0.1-1.2-0.3
	C10.1,8,9.1,8.1,8.1,8.2L8.1,8.2z M8.1,23.2c0,1.2,0,2.4,0,3.6c0,0.3,0.1,0.4,0.4,0.4c1.1,0,2.2,0,3.2,0c1.2,0,2.3-0.2,3.2-1
	c0.6-0.5,0.9-1.2,1.1-1.9c0.2-0.7,0.2-1.4,0-2.1c-0.1-0.8-0.5-1.4-1.1-1.9c-0.9-0.8-2.1-1-3.3-1.1c-1,0-2.1,0-3.2,0
	c-0.3,0-0.4,0.1-0.4,0.4C8.1,20.8,8.1,22,8.1,23.2z"/>
<path class="st0" d="M112.9,4.8c0.9-0.1,1.8,0.1,2.6,0.4c0.6,0.2,1.2,0.6,1.7,1c0.9,0.7,1.5,1.6,1.8,2.7c0.3,0.8,0.5,1.6,0.4,2.4
	c0,0.4,0,0.9,0,1.3c-0.1,2.5-1.1,4.5-3.4,5.8c0.9,0.8,1.7,1.7,2.3,2.7c0.9,1.4,1.6,2.9,2.3,4.4c0.8,1.6,1.6,3.1,2.6,4.6
	c0.1,0.1,0.1,0.3,0.2,0.4c-1.2,0-2.4,0-3.6,0c-0.7-1.3-1.4-2.7-2.1-4c-0.8-1.5-1.6-3.1-2.6-4.6c-0.6-0.9-1.2-1.8-2.3-2.3
	c-0.7-0.3-1.5-0.3-2.2-0.3c-0.1,0-0.2,0.1-0.2,0.2s0,0.2,0,0.3c0,3.5,0,7.1,0,10.6c-1,0-2,0-3,0c0-1.3,0-2.5,0-3.8
	c0-7.2,0-14.4,0-21.6c0-0.1,0-0.2,0-0.3C109.3,4.8,111.1,4.8,112.9,4.8z M116.3,12.7c0.2-0.4,0.2-0.9,0-1.3
	c-0.1-0.3-0.1-0.5-0.2-0.8c-0.1-0.7-0.4-1.3-0.9-1.7s-1-0.8-1.8-0.8c-0.2,0-0.5,0-0.7-0.1c-0.1-0.1-0.2-0.1-0.3-0.1
	c-0.5,0-1.1,0-1.6,0c-0.1,0-0.3,0-0.3,0.1c0,2.7,0,5.3,0,8c0,0.1,0.1,0.1,0.2,0.1c0.7,0,1.5,0,2.2,0c0.1,0,0.2,0,0.2-0.1
	c0.3-0.1,0.6-0.1,0.9-0.2c0.7-0.3,1.3-0.6,1.7-1.3C116,13.9,116.2,13.4,116.3,12.7z"/>
<path class="st0" d="M33.3,30.5c-0.3-0.6-0.7-1.2-1-1.8c-1.1-2.3-2.2-4.6-3.6-6.7c-0.5-0.8-1-1.5-1.8-2c-0.8-0.6-1.8-0.6-2.8-0.6
	c-0.1,0-0.2,0.1-0.2,0.2s0,0.2,0,0.3c0,3.3,0,6.7,0,10c0,0.2,0,0.4,0,0.6c-1,0-2,0-3,0c0-0.3,0-0.6,0-1c0-8.1,0-16.2,0-24.3
	c0-0.2,0-0.4,0-0.5c1.8,0,3.6,0,5.4,0c0.9-0.1,1.8,0.1,2.6,0.4c0.6,0.2,1.2,0.6,1.7,1c0.8,0.7,1.4,1.6,1.8,2.6
	c0.3,0.8,0.5,1.5,0.4,2.4c0,0.4,0,0.9,0,1.3c-0.1,2.5-1.1,4.5-3.3,5.7c0.2,0.3,0.5,0.5,0.7,0.7c-0.2,0.3-0.5-0.2-0.8,0.2
	c0.4,0,0.4,0.2,0.3,0.4c-0.1,0.2-0.1,0.3,0.2,0.3c-0.1,0.2-0.2,0.4-0.5,0.3c-0.2-0.1-0.3-0.3-0.5-0.2c0.6,0.6,1.4,1,2.1,1.5
	c-0.3,0.1-0.3,0.1-0.2,0.2c0.3,0.2,0.5,0.5,0.9,0.6c0.3,0.1,0.4,0.4,0.5,0.6s0.5,0,0.7,0.3c0.5,1.1,1.1,2.2,1.6,3.2
	c0.7,1.2,1.3,2.5,2.1,3.7c0.1,0.1,0.2,0.3,0.2,0.4C35.7,30.5,34.5,30.5,33.3,30.5z M23.9,16c0,0.1,0.1,0.1,0.2,0.1
	c0.7,0,1.5,0,2.2,0c0.1,0,0.2,0,0.2-0.1c0.3-0.1,0.6-0.1,0.9-0.2c0.7-0.3,1.3-0.7,1.7-1.3c0.3-0.5,0.6-1.1,0.7-1.7
	c0.2-0.4,0.2-0.9,0-1.3c-0.1-0.3-0.1-0.5-0.2-0.8C29.5,10,29.2,9.4,28.7,9s-1-0.8-1.8-0.8c-0.2,0-0.5,0-0.7-0.1C26.1,8,26,8,25.9,8
	c-0.5,0-1.1,0-1.6,0C24.2,8,24,8,24,8.1C23.9,10.7,23.9,13.3,23.9,16z"/>
<path class="st0" d="M103.4,30.5c-0.4-1.1-0.8-2.2-1.2-3.4c-0.5-1.3-0.9-2.6-1.4-3.9c-0.1-0.2-0.1-0.2-0.3-0.2c-2.7,0-5.5,0-8.2,0
	c-0.3,0-0.3,0.1-0.4,0.3c-0.8,2.4-1.6,4.7-2.4,7.1l0,0c-0.9,0-1.7,0-2.6,0c-0.1,0-0.4,0.1-0.4-0.2c0.2-1,0.6-1.9,0.9-2.9
	c0.4-1,0.7-2.1,1.1-3.1c1.1-3.3,2.3-6.6,3.4-9.9c0.7-2.2,1.5-4.3,2.2-6.5c0.3-1,0.7-2,1-3c0.1-0.2,0.1-0.3,0.4-0.3
	c0.6,0,1.1,0,1.7,0c0.2,0,0.3,0.1,0.3,0.3c0.7,2.1,1.5,4.1,2.2,6.2c1,2.8,2,5.6,3,8.4c1.1,3,2.1,6.1,3.2,9.1
	c0.2,0.6,0.5,1.2,0.6,1.9c-0.1,0.1-0.2,0.1-0.3,0.1C105.2,30.5,104.3,30.5,103.4,30.5z M93.2,19.6c0.1,0.1,0.2,0.1,0.4,0.1
	c1.8,0,3.6,0,5.4,0c0.1,0,0.3,0,0.4-0.1s0.1-0.2,0-0.3c-0.2-0.5-0.4-0.9-0.5-1.4c-0.8-2.3-1.6-4.6-2.4-6.9c-0.1-0.2-0.2-0.3-0.3-0.6
	c-0.8,2.4-1.6,4.7-2.3,7C93.6,18.2,93.3,18.9,93.2,19.6z"/>
<path class="st0" d="M118.8,43c0-3.2,0-6.3,0-9.4c0-0.4,0.1-0.5,0.5-0.5c1.1,0,1.1,0,1.1,1.1c0,3.7,0,7.4,0,11.2
	c0,0.5,0,0.5-0.5,0.6c-0.7,0.1-1.1-0.2-1.5-0.7c-1-1.3-2.1-2.5-3.2-3.8c-1-1.2-2-2.5-3.1-3.7c-0.4-0.5-0.9-1-1.4-1.6
	c0,0.2,0,0.3,0,0.5c0,3,0,5.9,0,8.9c0,0.4-0.1,0.5-0.5,0.5s-0.9,0.2-1.1-0.1c-0.2-0.2-0.1-0.7-0.1-1c0-3.7,0-7.5,0-11.2
	c0-0.3,0.1-0.4,0.4-0.4c0.9-0.2,1.3,0.5,1.8,1c1,1.1,1.9,2.3,2.9,3.4c0.9,1.1,1.8,2.3,2.8,3.4C117.6,41.6,118.1,42.2,118.8,43z"/>
<path class="st0" d="M94.5,39.5c-0.1,3.7-2.6,6.6-6.7,6.5c-3.5-0.1-6.4-2.8-6.2-6.9c0.1-3.5,2.6-6.2,6.4-6.3
	C91.8,32.9,94.5,35.7,94.5,39.5z M92.7,39.5c0-0.1,0-0.3,0-0.4c0-0.1-0.1-0.3-0.1-0.4c-0.2-1.3-0.8-2.4-1.9-3.2
	c-1.1-0.7-2.2-1-3.5-0.8c-1.6,0.3-2.8,1.1-3.4,2.6c-0.5,1-0.6,2.1-0.4,3.2c0.2,0.8,0.5,1.6,1,2.2c0.8,0.9,1.7,1.4,2.9,1.6
	c1.4,0.2,2.6-0.1,3.7-1C92.2,42.4,92.7,41,92.7,39.5z"/>
<path class="st0" d="M98.2,37.4c0,1.2,0,2.4,0,3.7c0,2.1,1.5,3.3,3.3,3.3c0.7,0,1.3-0.1,1.9-0.4c1.3-0.5,1.7-1.6,1.7-2.8
	c0-2.6,0-5.1,0-7.7c0-0.3,0.1-0.5,0.4-0.4c0.4,0.1,1-0.2,1.3,0.1s0.1,0.8,0.1,1.2c0,2.2,0,4.5,0,6.7c0,0.8-0.2,1.6-0.5,2.3
	c-0.6,1.4-1.8,2.1-3.2,2.4c-1.2,0.3-2.4,0.3-3.6-0.1c-1.6-0.5-2.7-1.6-3.1-3.3c-0.1-0.5-0.2-0.9-0.2-1.4c0-2.5,0-5,0-7.5
	c0-0.4,0.1-0.6,0.5-0.5c0.3,0,0.6,0,0.9,0s0.3,0.1,0.3,0.3C98.1,34.8,98.2,36.1,98.2,37.4z"/>
<path class="st0" d="M79.9,43c0,0.6,0,1.2,0,1.8c0,0.1,0,0.2-0.2,0.2c-1,0.5-2,0.9-3.1,1c-0.4,0-0.8,0.1-1.3,0.1
	c-2.6-0.1-4.8-1.4-5.8-4c-0.9-2.3-0.6-4.4,0.8-6.5c1-1.5,2.6-2.3,4.4-2.6c1.7-0.3,3.3,0.2,4.8,0.8c0.1,0.1,0.3,0.1,0.3,0.3
	c0,0.6,0,1.1,0,1.7c-0.6-0.3-1.2-0.7-1.9-0.9c-1.6-0.6-3.2-0.6-4.7,0.2c-1.3,0.7-2,1.8-2.3,3.2c-0.3,1.3-0.1,2.5,0.6,3.7
	c0.7,1.3,1.9,2,3.3,2.2C76.7,44.5,78.3,43.9,79.9,43C79.8,43,79.8,43,79.9,43z"/>
<path class="st0" d="M126.2,40.3c0-1.7,0-3.5,0-5.2c0-0.3-0.1-0.4-0.4-0.4c-1.1,0-2.3,0-3.4,0c-0.3,0-0.4-0.1-0.4-0.4
	c0-0.4-0.2-1,0.1-1.2c0.2-0.2,0.8-0.1,1.2-0.1c2.8,0,5.5,0,8.3,0c0.3,0,0.5,0.1,0.5,0.4c0,0.3,0,0.5,0,0.8c0,0.4-0.1,0.5-0.5,0.4
	c-1.1,0-2.2,0-3.2,0c-0.4,0-0.5,0.1-0.5,0.5c0,3.4,0,6.8,0,10.2c0,0.4-0.1,0.5-0.5,0.5c-0.3,0-0.6,0-0.9,0s-0.4-0.1-0.4-0.4
	C126.2,43.8,126.2,42.1,126.2,40.3z"/>
<path class="st0" d="M132.4,33.1c0.7,0,1.3,0,1.9,0c0.2,0,0.3,0.1,0.4,0.2c1,1.3,1.9,2.6,2.9,3.9c0.1,0.2,0.2,0.2,0.4,0
	c0.9-1.3,1.9-2.5,2.8-3.8c0.2-0.2,0.3-0.4,0.7-0.4c0.5,0,1.1,0,1.7,0c-0.4,0.6-0.9,1.2-1.3,1.7c-1,1.4-2,2.7-3,4
	c-0.1,0.2-0.2,0.4-0.2,0.6c0,2,0,4,0,6c0,0.3-0.1,0.4-0.4,0.4c-0.3,0-0.6,0-1,0c-0.3,0-0.4-0.1-0.4-0.4c0-1.9,0-3.8,0-5.7
	c0-0.5-0.1-0.9-0.4-1.2C135.1,36.7,133.8,35,132.4,33.1z"/>
<path class="st1" d="M38.4,34.6c-0.1,0-0.2-0.1,0-0.2c0.2-0.1,0.4-0.2,0.7-0.4c-0.1-0.1-0.2-0.2-0.4-0.1c-0.3,0.2-0.7,0.4-1.1,0.3
	c-0.2-0.1-0.4,0.2-0.6,0.2c-0.1,0-0.2-0.1-0.1-0.2c0.5-0.6,0.5-1.3,0.7-1.9c0.7-1.7,1.5-3.4,2.8-4.8c0.2-0.2,0.3-0.4,0.5-0.6
	s0.1-0.5,0.5-0.5c0.5,0,0.7,0.2,0.9,0.6c0.1,0.1,0.1,0.2,0.2,0.2c0.1,0.1,0.2,0.2,0.3,0.3c0.1,0.7,0.3,1.5,0,2.2s-0.5,1.4-0.7,2.1
	c-0.1,0.2-0.3,0.4-0.4,0.7c-0.3,0.5-0.5,1-0.8,1.5c0,0.2-0.3,0.3-0.4,0.5c-0.2-0.1-0.5,0.1-0.6,0C39.2,34.4,38.8,34.5,38.4,34.6z"/>
<path class="st1" d="M33,23.2c-0.2-0.3-0.6,0-0.7-0.3c-0.1-0.2-0.2-0.5-0.5-0.6c-0.4-0.1-0.6-0.4-0.9-0.6c-0.1-0.1-0.1-0.1,0.2-0.2
	C30.5,21,29.7,20.6,29,20c0.3-0.1,0.4,0.2,0.5,0.2c0.3,0.1,0.3-0.1,0.5-0.3c-0.3,0-0.4-0.1-0.2-0.3c0.1-0.2,0.2-0.4-0.3-0.4
	c0.3-0.3,0.6,0.1,0.8-0.2c0.7,0,1.4,0,2,0c0.4,0.2,0.8,0.1,1.2,0.2c1,0.2,2.1,0.3,3.1,0.5c0.6,0.1,1.1,0.3,1.6,0.7
	c0.3,0.2,0.3,0.7,0,1c-0.1,0.1-0.3,0.2-0.4,0.3c-0.7,0.3-1.1,1-1.8,1.2C35.5,23,35,23,34.6,23C34,23,33.4,22.7,33,23.2z"/>
<path class="st1" d="M56.5,2.1c0,0.7,0,1.4-0.4,2.1c0.3,0,0.3-0.3,0.5-0.3c-0.3,1.7-1.5,2.9-2.5,4.2c-0.4,0.5-0.9,1-1.3,1.5
	c-0.1,0.1-0.2,0.3-0.4,0.4c-0.2,0.1-0.5,0.2-0.7-0.1l0,0c-0.7-0.5-0.7-1.2-0.6-2c0.5-1.9,1.3-3.6,2.5-5.1c0.2-0.2,0.4-0.3,0.6-0.3
	c0.4,0,0.5-0.3,0.7-0.6c0.1,0,0.3-0.2,0.4,0c-0.1,0.1-0.2,0.3-0.2,0.4s-0.1,0.2,0,0.3s0.2,0,0.2-0.1C55.5,2.3,55.8,2.2,56,2
	C56.2,1.9,56.3,2.1,56.5,2.1z"/>
<path class="st1" d="M56.6,23.7c0.2,0,0.4,0.2,0.5,0.3c0.2,0.3,0.6,0.5,0.9,0.7c1.1,0.6,2.1,1.3,3,2.1c0.4,0.3,0.4,0.7,0.6,1.1
	c0.3,0.4,0.4,1,0.8,1.4c0.4,0.4,0.7,0.8,1.2,1.1c0,0.1,0.2,0.1,0.1,0.2c0,0.1-0.1,0-0.2,0c-0.4-0.3-0.8-0.6-1.2-0.9
	c0.3,0.5,0.7,0.7,1.2,1c0.1,0.1,0.3,0.1,0.4,0.3c-0.1,0.1-0.2-0.1-0.3,0c0.1,0.1,0,0.2,0,0.2c-0.3,0,0.2,0.2-0.1,0.2
	c-0.6,0-1-0.3-1.5-0.6c-0.5-0.3-1-0.5-1.5-0.7c-1.5-0.5-2.6-1.4-3.6-2.6c-0.1-0.1-0.3-0.3-0.4-0.4c-0.3-0.5-0.6-1-0.5-1.6
	c0.2-0.4,0.1-0.8,0.2-1.3C56.3,23.9,56.3,23.7,56.6,23.7z"/>
<path class="st1" d="M42.7,11.3c0,0.6-0.2,0.8-0.8,0.8c-0.1,0-0.3,0-0.4,0c-0.1-0.2-0.3-0.1-0.5-0.2c-0.9-0.3-1.5-0.7-2.1-1.5
	c-0.4-0.6-0.8-1.2-1.4-1.7c-0.3-0.2-0.3-0.4-0.3-0.9c0.2,0.3,0.3,0.6,0.5,0.9c0-0.8-0.8-1.4-0.4-2.2c0.1,0,0.1,0.2,0.2,0.3
	c0.1-0.4,0-0.7-0.2-1S37,5.2,37.1,4.9c0.1,0.3,0.2,0.5,0.3,0.8c0,0.1,0.1,0.2,0.2,0.1c0,0,0.1-0.1,0-0.1C37.3,5.4,37.3,5,37,4.9
	c0-0.3-0.2-0.5-0.2-0.7c0.2,0.1,0.5,0.1,0.4,0.5c-0.1,0.2,0.1,0.3,0.3,0.6c-0.1-0.4-0.2-0.7,0.3-0.7l0.1-0.1c0-0.6,0.3-0.1,0.4-0.1
	c0.5,0.4,0.8,0.9,1.2,1.3c1,1.1,1.8,2.4,2.5,3.7C42.4,9.9,42.6,10.6,42.7,11.3z"/>
<path class="st1" d="M51.1,36.7c-0.1-0.2,0.2-0.5-0.1-0.5c-0.2-0.1-0.5-0.1-0.8,0c-0.4,0.1-0.7,0.4-1.1,0.3c-0.1,0-0.2,0-0.2-0.1
	c0.1-0.4-0.1-0.2-0.3-0.2C48.2,36.3,48,36,48,35.6c0-0.6,0-1.3,0-1.9c0-0.7,0.1-1.4,0.1-2c0-0.8,0.4-1.5,0.7-2.2
	c0.2-0.5,0.6-0.6,1-0.2c0.9,0.9,1.4,1.9,1.5,3.1c0,0.7,0.1,1.4,0.2,2.1C51.7,35.2,51.5,35.9,51.1,36.7z"/>
<path class="st2" d="M33.4,30.6c1.1,0,2.3,0,3.4,0c-0.6,0.1-1.3,0-1.9,0C34.4,30.7,33.9,30.7,33.4,30.6z"/>
<path class="st1" d="M57.3,16.6c-0.1,0-0.2-0.1-0.2-0.1c0.1-0.5-0.3-0.7-0.5-1c-0.1-0.2,0-0.3,0.1-0.4c0.8-0.6,1.7-0.9,2.7-1.2
	c0.5-0.1,1.1-0.2,1.5-0.6c0.1-0.1,0.3-0.1,0.4-0.1c0.1,0,0.2,0,0.2,0.1c0.1,0.1-0.2,0.1-0.1,0.2c0.1,0.1,0.3,0,0.3-0.1
	c0.2-0.5,0.4-0.2,0.7,0c0.1,0.1,0.3,0.1,0.4,0c0.3,0,0.5,0,0.7,0.2c0.1,0.6,0.5,0.9,1.1,0.9c0.2,0,0.3,0.1,0.4,0.4
	c0,0.1,0.1,0,0.2,0.1c0.2,0,0.3,0.1,0.6,0.2c-0.4,0.1-0.5,0.2-0.5,0.5c0,0.2-0.2,0.3-0.4,0.3c-0.2,0-0.4,0-0.6,0.1
	c-0.3,0-0.6,0.1-0.9,0.3l-0.1,0.1c0,0.1,0.1,0.1,0.2,0.1c0.2-0.1,0.4-0.1,0.6,0.1c-1.6,0.4-3.2,0.6-4.8,0.5
	C58.6,16.9,58,16.6,57.3,16.6z"/>
<path class="st1" d="M49.4,10.1c0.1,0.2,0.3,0.4,0.2,0.7c-0.1,0.2,0.1,0.3,0.3,0.3c1.4,0.3,2.6,1,3.8,1.7c0.6,0.3,1.1,0.8,1.7,1.3
	c0.6,0.5,0.9,1.2,1.3,1.8c0.2,0.3,0.2,0.8,0.3,1.2c0.1,0.6,0.2,1.2,0.1,1.9c-0.1,0.7-0.1,1.4-0.2,2.2c0,0.4-0.2,0.7-0.4,1.1
	c-0.1,0,0-0.3-0.2-0.2c-0.1,0-0.1,0.2,0,0.3c0.2,0.2,0.1,0.4-0.2,0.4c-0.1,0-0.2-0.1-0.4-0.1c0.3,0.2,0.3,0.5,0.3,0.6
	c-0.2,0.4-0.4,0.8-0.7,1.1c-0.2,0.3-0.6,0.5-0.7,0.9c0,0.1-0.1,0.2-0.2,0.2c-0.6,0.3-1.1,0.7-1.7,1.1c-0.7,0.4-1.4,0.6-2.1,0.8
	c-0.4,0.1-0.7,0.3-1.1,0.3c-0.7,0-1.4,0-2.1-0.2c-0.7-0.2-1.3-0.6-2.1-0.7c-0.5-0.1-0.8-0.6-1.2-0.9c-0.8-0.8-1.4-1.7-1.9-2.7
	c-0.6-1.1-0.9-2.2-1-3.4c-0.1-1-0.2-1.9,0-2.9c0.2-1.1,0.5-2.1,1-3.1c1-1.8,2.5-2.9,4.3-3.7c0.1,0,0.3,0,0.3-0.2
	c0.6,0,1.2,0,1.8-0.3C48.8,9.4,49.3,9.7,49.4,10.1z M49.5,11.1c0,0.5-0.1,0.8-0.5,0.9c-0.3,0.1-0.6,0.3-0.9,0.6
	c-0.2,0.2-0.3,0.4-0.5,0.6c-0.5,0.4-1,0.8-1.3,1.3c-0.7,1.1-0.9,2.4-0.8,3.6c0,0.8,0.2,1.5,0.4,2.3c0.5,1.5,1.4,2.6,2.9,3.1
	c0.8,0.3,1.6,0.3,2.5,0c1.1-0.4,2-1.1,2.6-2.1c0.4-0.7,0.8-1.3,0.9-2.1c0.1-0.3-0.1-0.7,0-1c0.1-0.8,0-1.5-0.1-2.3
	c-0.1-0.6-0.2-1.3-0.7-1.8c-0.3-0.3-0.6-0.7-1-1C52,12.4,50.8,11.8,49.5,11.1z"/>
<path class="st0" d="M54.7,55.8c-0.9,0-1.7-0.3-2.2-0.9C52,54,52,52.8,53,52c1.1-0.8,3-0.7,3.8,0.6c0.6,1.1,0.2,2.4-0.9,2.9
	C55.5,55.7,55.1,55.8,54.7,55.8z"/>
<path class="st0" d="M111.4,51.5c0.7,0,1.5-0.1,2.2,0.1c0.9,0.3,1.4,0.8,1.5,1.7c0.2,1.2-0.5,2.4-1.9,2.5c-0.4,0-0.8,0-1.2,0
	c-0.8,0-0.7,0.1-0.7-0.7C111.4,53.9,111.4,52.7,111.4,51.5z"/>
<path class="st0" d="M74.9,51.5c0.5,0,1-0.1,1.5,0.1c0.4,0.1,0.6,0.4,0.5,0.8c0,0.4-0.3,0.6-0.7,0.6c-0.3,0-0.6,0-0.8,0
	c-0.4,0-0.6-0.1-0.5-0.5C74.9,52.1,74.9,51.8,74.9,51.5z"/>
<path class="st0" d="M132.4,54.4c0.2-0.7,0.5-1.3,0.8-1.9c0.1-0.2,0-0.5,0.2-0.5s0.2,0.3,0.3,0.5c0.3,0.7,0.6,1.3,0.9,2
	c-0.5,0-1.1,0-1.6,0C132.7,54.4,132.5,54.5,132.4,54.4z"/>
<g>
	<path class="st3" d="M63.6,31.3c0,0.2,0,0.4,0,0.7c-0.1,0.6-0.1,1.2-0.3,1.8c-0.3,1.1-0.8,1.9-1.8,2.5c-0.4,0.2-0.8,0.5-1.2,0.6
		c-0.7,0.3-1.4,0.3-2.1,0.4c-1,0.1-2.1,0.3-3.1,0.2c-1.5-0.2-2.9,0.3-4.4,0.2c-1.2-0.1-2.2-0.4-2.9-1.5c-0.3-0.5-0.9-0.8-1.3-1.3
		c-0.3-0.3-0.6-0.6-1-0.9c-0.7-0.5-1.4-0.4-2.2-0.4c-0.7,0-1.3,0.3-1.9,0.4c-0.3,0-0.5,0.2-0.8,0.1c0.3-0.5,0.5-1,0.8-1.5
		c0.1-0.2,0.3-0.4,0.4-0.7c0.3-0.7,0.4-1.4,0.7-2.1s0.1-1.5,0-2.2c0-0.1-0.1-0.2-0.3-0.3c-0.1,0-0.2-0.1-0.2-0.2
		c-0.2-0.4-0.4-0.7-0.9-0.6c-0.3,0-0.3,0.4-0.5,0.5c-0.2,0.2-0.3,0.4-0.5,0.6c-1.2,1.4-2.1,3.1-2.8,4.8c-0.3,0.6-0.2,1.4-0.7,1.9
		c-0.1,0.1,0,0.2,0.1,0.2c0.2,0,0.4-0.2,0.6-0.2c0.5,0.2,0.8-0.1,1.1-0.3c0.2-0.1,0.2-0.1,0.4,0.1c-0.2,0.1-0.5,0.2-0.7,0.4
		c-0.2,0.1-0.1,0.1,0,0.2c-0.9,0.3-1.8,0.5-2.7,0.2c-0.6-0.2-1.2-0.4-1.6-0.8c-0.3-0.3-0.5-0.8-0.7-1.3c-0.2-0.6-0.4-1.3-0.6-1.9
		c-0.2-0.7-0.4-1.4-0.5-2.2c0.3,0.6,0.7,1.2,1,1.8l0.1,0.1c0.5,0.1,1,0.1,1.5,0c0.6,0,1.3,0.1,1.9,0c0.1,0,0.1,0,0-0.1
		c0-0.2-0.1-0.3-0.2-0.4c-0.8-1.2-1.4-2.4-2.1-3.7c-0.6-1.1-1.1-2.1-1.6-3.2c0.5-0.5,1.1-0.2,1.6-0.2c0.4,0,0.9,0,1.3-0.1
		c0.7-0.2,1.1-0.9,1.8-1.2c0.2-0.1,0.3-0.2,0.4-0.3c0.3-0.3,0.3-0.8,0-1c-0.5-0.3-1-0.6-1.6-0.7c-1-0.1-2.1-0.3-3.1-0.5
		c-0.4-0.1-0.8,0-1.2-0.2c0.1-0.6,0.2-1.2,0.3-1.8c0.1-1.1,0.2-2.2,0.3-3.2c0.1-1.2,0.4-2.5,0.7-3.7c0.1-0.7,0.2-1.3,0.3-2
		c0.2-0.9,0.4-1.9,0.8-2.7c0.1-0.3,0.5-0.4,0.8-0.5c0.7-0.1,1-0.3,1.2-0.7c0.1-0.2,0.3-0.3,0.6-0.3l0,0c0,0.3,0.3,0.5,0.2,0.7l0,0
		c-0.1,0.4,0.1,0.7,0.2,0.9c0.2,0.3,0.3,0.6,0.2,1c-0.2-0.1-0.1-0.3-0.2-0.3c-0.4,0.8,0.5,1.4,0.4,2.2c-0.1-0.3-0.3-0.5-0.5-0.9
		c0,0.5,0,0.7,0.3,0.9c0.6,0.5,1,1.1,1.4,1.7c0.6,0.7,1.3,1.2,2.1,1.5c0.2,0.1,0.4,0,0.5,0.2c-0.6,0.3-0.8,1-1.3,1.4
		c-0.2,0.2-0.3,0.4-0.4,0.7c-0.1,0.9-0.5,1.8-0.6,2.8c0,0.4-0.1,0.8-0.2,1.3c-0.1,0.4,0,0.9,0.2,1.3c0.3,0.7,0.2,1.5,0.6,2.2
		c0.2,0.4,0.1,0.9,0.6,1.2c0.1,0.1,0.2,0.2,0.2,0.3c0.4,0.6,0.7,1.3,1.3,1.8c0.4,0.4,0.8,0.8,1.3,1.2c0.2,0.2,0.5,0.4,0.8,0.6
		c0.4,0.2,0.7,0.6,1.2,0.7c0.4,0.1,0.6,0.5,1.1,0.4c0.1,0,0.2,0.1,0.3,0.2s0.2,0.2,0.3,0.1c0.3-0.1,0.6,0,0.8,0.1
		c0.6,0.1,1.1,0.3,1.7,0.3c0.1,0,0.2,0,0.3,0.1c0.1,0.2,0.3,0.1,0.5,0.1c0.7-0.2,1.4-0.3,2.1-0.3c0.9-0.1,1.6-0.4,2.3-0.8
		c0.4-0.3,0.7-0.6,1-1c0.2-0.3,0.4-0.8,0.7-1.1c0,0.6,0.2,1.1,0.5,1.6c0.1,0.1,0.2,0.3,0.4,0.4c1,1.2,2.1,2.2,3.6,2.6
		c0.5,0.2,1,0.4,1.5,0.7C62.5,31,63,31.3,63.6,31.3z M51.1,36.7c0.4-0.7,0.6-1.5,0.5-2.3c0-0.7-0.1-1.4-0.2-2.1
		c-0.1-1.2-0.6-2.3-1.5-3.1c-0.4-0.4-0.8-0.3-1,0.2c-0.3,0.7-0.7,1.4-0.7,2.2c0,0.7-0.1,1.3-0.1,2c0,0.6,0,1.3,0,1.9
		c0,0.5,0.2,0.7,0.6,0.6c0.2,0,0.4-0.2,0.3,0.2c0,0.1,0.1,0.1,0.2,0.1c0.4,0.1,0.8-0.2,1.1-0.3s0.5,0,0.8,0
		C51.3,36.2,51,36.5,51.1,36.7z"/>
	<path class="st3" d="M61.1,4.3c-0.6,0-0.6-0.1-0.4,0.6c0.5,1.4,0.9,2.8,1.4,4.2c0.5,1.5,1,3,1.4,4.5c-0.2-0.2-0.4-0.3-0.7-0.2
		c-0.1,0-0.3,0-0.4,0c-0.3-0.2-0.5-0.4-0.7,0c0,0-0.2,0.1-0.3,0.1c0-0.1,0.2-0.1,0.1-0.2c0-0.1-0.1-0.1-0.2-0.1
		c-0.2,0-0.3,0-0.4,0.1c-0.4,0.4-1,0.4-1.5,0.6c-1,0.3-1.8,0.6-2.7,1.2c-0.1-0.1-0.1-0.2-0.2-0.3c-0.4-0.8-1-1.4-1.6-2
		c-0.7-0.7-1.4-1.3-2.4-1.7s-2-1-3.1-1.1c-0.1-0.4-0.6-0.7-1-0.5c-0.6,0.3-1.2,0.3-1.8,0.3c-0.4,0.1-0.8,0.2-1.2,0.2
		c-1,0.2-1.9,0.6-2.7,1.2c-0.1-0.7-0.3-1.4-0.7-2c-0.8-1.3-1.5-2.6-2.5-3.7c-0.4-0.4-0.7-0.9-1.2-1.3c-0.1-0.1-0.4-0.5-0.4,0.1
		c0,0,0,0.1-0.1,0.1c-0.5,0-0.4,0.3-0.3,0.7c-0.2-0.2-0.4-0.4-0.3-0.6C37.3,4.1,37,4.1,36.8,4l0,0c0.1-0.1,0.1-0.2,0.1-0.3l0,0
		c0.1,0,0.2,0.1,0.3,0.1c0.3-0.2,0.7-0.2,1.1-0.4c1.3-0.5,2.6-0.8,3.9-1.1c1.2-0.2,2.4-0.4,3.7-0.7c0.5-0.1,1,0,1.5-0.1
		c1.6-0.1,3.2-0.1,4.8-0.1c0.9,0,1.9,0.2,2.8,0.2c0,0,0.1,0,0.1,0.1c-0.2,0.3-0.3,0.6-0.7,0.6c-0.2,0-0.4,0-0.6,0.3
		c-1.1,1.6-2,3.3-2.5,5.1c-0.3,1-0.3,1.7,0.4,2.2l0,0c0.2,0.3,0.4,0.2,0.7,0.1c0.2-0.1,0.3-0.2,0.4-0.4c0.4-0.5,0.9-1,1.3-1.5
		c1-1.3,2.2-2.4,2.5-4.2c-0.2,0-0.2,0.3-0.5,0.3c0.4-0.7,0.4-1.4,0.4-2.1c1,0.2,2,0.5,2.8,0.9c0.4,0.2,0.9,0.4,1.2,0.9
		C60.6,4,60.8,4,60.9,4C61.1,4.1,61.2,4.2,61.1,4.3z"/>
	<path class="st3" d="M62,43.1c0.1,0.1,0.1,0.2,0.1,0.2c0.1,0.1,0.5,0.2,0.4,0.4c-0.1,0.1-0.3,0.4-0.6,0.3c-0.3-0.1-0.5,0-0.7,0
		c-0.7,0.1-1.4-0.2-2.2-0.2c-1.2-0.1-2.4-0.1-3.6-0.1c-0.5,0-1,0-1.5,0s-1,0.1-1.5,0.2c-0.5,0.1-1.1,0.2-1.6,0.3
		c-0.4,0.1-0.8,0-1.2,0.3c-0.1,0.1-0.3,0-0.5,0c-0.2,0.1-0.5,0.1-0.7,0.3c-0.3,0.2-0.6,0-0.9,0.2c-0.4,0.3-0.9,0.4-1.4,0.5
		c-0.4,0.1-0.8,0.4-1.2,0.2c0,0.2-0.2,0.2-0.4,0.3c-0.1,0.1-0.3,0.2-0.3-0.1c0-0.1-0.2-0.1-0.2-0.1c-0.5,0.2-1,0-1.4-0.3
		c-0.3-0.2-0.4-0.7-0.5-1.1c-0.2-1,0-2.1,0.1-3.1c0-0.3-0.1-0.4-0.3-0.3c-1.8,0.2-3.5,0.8-5.1,1.4c-0.1,0-0.2,0.1-0.3,0.1
		c-0.5,0.5-1.2,0.7-1.9,1.1c-0.5,0.3-1.2,0.4-1.7,0.6c-0.4,0.1-0.8,0.2-1,0.6c-0.1,0.2-0.4,0.2-0.6,0.1c-0.5-0.1-0.9-0.3-1.3-0.5
		s-0.6-0.4-0.6-0.9c0-0.6,0-1.1,0.3-1.6c0.1-0.1,0.1-0.2,0-0.2c-0.1-0.2,0.1-0.4,0.2-0.4c0.4-0.1,0.6-0.5,0.9-0.7
		c1.2-1.2,2.4-2.4,4-3.1c1.6-0.7,3.3-1.3,5.1-1.5c0.7-0.1,1.4-0.2,2.1-0.2c1.6,0,3,0.4,4.3,1.3c0.6,0.5,1,1.1,1,1.9
		c0,0.5,0,1-0.2,1.5c0,0.1-0.1,0.2,0,0.2c0.1,0.1,0.1,0,0.2,0c1.2-0.4,2.5-0.6,3.8-0.8c0.8-0.1,1.5-0.3,2.3-0.3c1,0,1.9-0.1,2.9,0
		c0.7,0.1,1.3,0.1,2,0.2c1.5,0.3,2.8,0.9,3.9,2c0.3,0.3,0.3,0.6,0.4,0.9C62.5,43,62.4,43.4,62,43.1z"/>
	<path class="st3" d="M64.3,16c0.4,1.2,0.8,2.4,1.1,3.6c-0.2,0-0.2,0.2-0.1,0.3c0.1,0.2,0,0.3,0,0.4c-0.2,1.1-0.5,2.1-0.6,3.2
		c-0.1,0.6-0.2,1.3-0.4,1.9c-0.4,1.4-0.3,2.8-0.6,4.2c0,0.2,0.1,0.5,0,0.7c-0.5-0.3-0.8-0.7-1.2-1.1c-0.3-0.4-0.5-0.9-0.8-1.4
		c-0.2-0.3-0.2-0.8-0.6-1.1c-0.9-0.8-1.9-1.5-3-2.1c-0.4-0.2-0.7-0.4-0.9-0.7c-0.1-0.1-0.2-0.3-0.5-0.3c0.3-1,0.3-2,0.5-2.9
		s0.3-1.8,0.3-2.8c0-0.5-0.1-0.9-0.2-1.4c0.7,0.1,1.3,0.4,2,0.4c1.6,0.1,3.2-0.1,4.8-0.5c-0.2-0.2-0.4-0.1-0.6-0.1
		c-0.1,0-0.1,0-0.2-0.1c0,0,0-0.1,0.1-0.1C63.7,16.1,63.9,16,64.3,16z"/>
	<path class="st3" d="M56,2c-0.2,0.1-0.5,0.3-0.6,0.5c0,0.1-0.1,0.2-0.2,0.1c-0.1-0.1,0-0.2,0-0.3c0.1-0.1,0.2-0.3,0.2-0.4
		C55.6,1.9,55.8,1.9,56,2z"/>
	<path class="st3" d="M63.6,30.5c-0.4-0.3-0.9-0.5-1.2-1C62.8,29.9,63.2,30.1,63.6,30.5L63.6,30.5z"/>
	<path class="st3" d="M37,4.9c0.3,0.1,0.3,0.5,0.5,0.7v0.1c-0.1,0.1-0.2,0-0.2-0.1C37.2,5.4,37.1,5.1,37,4.9L37,4.9z"/>
</g>
</svg>
