<?xml version="1.0" encoding="utf-8"?>
<!-- Generator: Adobe Illustrator 22.0.1, SVG Export Plug-In . SVG Version: 6.00 Build 0)  -->
<!DOCTYPE svg PUBLIC "-//W3C//DTD SVG 1.1//EN" "http://www.w3.org/Graphics/SVG/1.1/DTD/svg11.dtd">
<svg version="1.1" id="Layer_1" xmlns="http://www.w3.org/2000/svg" xmlns:xlink="http://www.w3.org/1999/xlink" x="0px" y="0px"
	 viewBox="0 0 189.2 80" style="enable-background:new 0 0 189.2 80;" xml:space="preserve">
<style type="text/css">
	.st0{fill:#383838;}
	.st1{fill:#E17426;}
	.st2{fill:#99B4D9;}
	.st3{fill:#AFAFAF;}
</style>
<g>
	<g id="Layer_1_1_">
	</g>
	<path class="st0" d="M186.7,78.6c-0.1,0-0.4,0-0.5,0c-61.1,0-122.1,0-183.2,0c-0.8,0-0.7,0-0.7-0.7c0-4.7,0-9.2,0-13.9
		c0-0.5,0.1-0.7,0.7-0.7c46.5,0,93.2,0,139.7,0c14.5,0,29.1,0,43.5,0c0.3,0,0.4,0,0.7,0C186.7,68.3,186.7,73.4,186.7,78.6z
		 M122.9,66.5c-0.8-0.3-1.6-0.1-2.4,0l-0.1,0.1c-0.1,0.1-0.1,0.3-0.1,0.4c0,2.8,0,5.5,0,8.3c0,0.1,0,0.4,0.1,0.4c0.7,0,1.3,0,2.1,0
		c0.3,0,0.4,0,0.4-0.4C122.9,72.3,122.9,69.4,122.9,66.5z M44.9,74.1c-0.1-0.1-0.4-0.1-0.5-0.1c-1.3,0-2.7,0-4,0
		c-0.4,0-0.5-0.1-0.5-0.5c0-2,0-4.1,0-6.1c0-0.1,0.1-0.4-0.1-0.5l-0.1-0.1c-0.8-0.1-1.6-0.3-2.4,0c0,2.5,0,5.1,0,7.7
		c0,0.5-0.1,1.1,0.1,1.3c0.3,0.3,0.9,0.1,1.5,0.1c2,0,4,0,5.9,0c0.1,0,0.4,0.1,0.4-0.1C44.9,75,45.2,74.5,44.9,74.1z M13.9,70.2
		c0-0.5,0-1.1,0-1.6c0-0.4,0.1-0.5,0.4-0.4c1.2,0,2.4,0,3.7,0c0.1,0,0.4,0.1,0.4-0.1c0-0.5,0.1-1.1-0.1-1.5
		c-0.1-0.1-0.3-0.1-0.4-0.1c-2,0-4,0-6,0c-0.1,0-0.3,0-0.4,0.1l-0.1,0.1c-0.1,0.1-0.1,0.3-0.1,0.4c0,2.8,0,5.5,0,8.3
		c0,0.1,0,0.4,0.1,0.4c0.7,0,1.3,0,2,0c0.4,0,0.5-0.1,0.5-0.5c0-0.9,0-1.9,0-2.9c0-0.4,0.1-0.4,0.4-0.4c1.2,0,2.5,0,3.7,0
		c0.1,0,0.4,0.1,0.4-0.1c0-0.5,0.1-1.1-0.1-1.5c-0.1-0.1-0.4-0.1-0.5-0.1C16.5,70.2,15.2,70.2,13.9,70.2z M172.3,66.5
		C172.3,66.6,172.3,66.6,172.3,66.5c-1.1,2.5-2.1,4.8-3.2,7.2c-0.3,0.7-0.5,1.3-0.8,2c0.5,0,0.9,0,1.3,0c1.1,0.1,1.7-0.1,1.9-1.2
		v-0.1c0.1-0.3,0.3-0.4,0.7-0.4c0.8,0,1.6,0,2.5,0c0.5,0,1.2-0.1,1.6,0c0.4,0.3,0.5,0.9,0.8,1.3c0.1,0.3,0.3,0.4,0.5,0.4
		c0.8,0,1.6,0,2.4,0c0-0.1-0.1-0.3-0.1-0.4c-1.2-2.3-2.3-4.7-3.5-6.9c-0.3-0.7-0.5-1.3-1.1-1.9c-0.8-0.3-1.6,0-2.3-0.1
		C172.7,66.3,172.4,66.3,172.3,66.5z M95.9,71.9c1.1-0.1,1.7,0.3,2.1,1.1c0.4,0.7,0.8,1.5,1.2,2.3c0.1,0.1,0.1,0.4,0.4,0.4
		c0.8,0,1.6,0,2.5,0c-0.4-1.2-1.9-3.7-2.7-4.3c0-0.1,0.1-0.1,0.3-0.1c2-0.9,1.9-3.1,0.3-4.1c-0.5-0.4-1.1-0.4-1.6-0.7
		c-0.1-0.1-0.1-0.1-0.3-0.1c-1.5,0-2.9,0-4.4,0c-0.1,0-0.3,0-0.4,0.1c0,2.9,0,5.9,0,8.8c0,0.4,0.1,0.4,0.4,0.4c0.7,0,1.3,0,2.1,0
		c0.3-0.1,0.1-0.4,0.1-0.5C95.9,74.1,95.9,73,95.9,71.9z M142,66.5c0,2.9,0,5.9,0,8.8c0,0.3,0,0.4,0.4,0.4c0.4,0,0.9,0,1.3,0
		c1.7,0,3.5,0.1,5.1-0.4c2.1-0.7,3.3-2,3.3-4.3c0-2-1.2-3.5-3.1-4.1c-0.7-0.3-1.3-0.3-1.9-0.4c-0.1-0.1-0.1-0.1-0.3-0.1
		c-1.6,0-3.1,0-4.7,0C142.1,66.3,142,66.3,142,66.5z M68.9,66.3c-1.1,0-2.1,0.1-3.1,0.7c-1.6,0.8-2.7,2.1-2.8,4
		c-0.1,2,1.3,3.6,3.1,4.3c1.2,0.5,2.5,0.7,4,0.4c1.5-0.1,2.7-0.7,3.7-1.7c1.6-1.7,1.5-4,0-5.7C72.4,66.9,70.7,66.5,68.9,66.3z"/>
	<path class="st0" d="M80.8,5.4c0.5,1.5,0.9,2.9,1.5,4.5c0.8,2.5,1.6,5.1,2.4,7.6c1.2,3.7,2.4,7.6,3.6,11.5c0.9-2.8,1.7-5.6,2.7-8.4
		c0.9-2.9,1.9-5.7,2.8-8.7c0.7-2.1,1.3-4.3,2-6.3c0-0.1,0.1-0.1,0.1-0.1c1.3,0,2.5,0,3.9,0c0.5,1.5,0.9,2.9,1.5,4.4
		c0.4,1.1,0.7,2.1,1.1,3.2c1.2,3.7,2.4,7.6,3.7,11.3c0.5,1.5,0.9,2.9,1.5,4.5c0.3-0.3,0.3-0.7,0.4-0.9c0.9-2.8,1.7-5.6,2.7-8.3
		c0.9-3.1,1.9-6,2.8-9.1c0.5-1.6,0.9-3.2,1.5-4.8c0-0.1,0.1-0.3,0.1-0.4c1.3,0,2.7,0,4,0c0.1,0.5-0.1,0.9-0.3,1.3
		c-0.9,2.8-1.9,5.7-2.8,8.5c-0.7,2.1-1.3,4.4-2.1,6.5c-1.1,3.3-2.1,6.5-3.2,9.9c-0.7,2.3-1.5,4.5-2.1,6.7c-0.1,0.4-0.3,0.8-0.4,1.2
		c-0.1,0.4-0.1,0.5-0.7,0.5c-0.4,0-0.5-0.3-0.7-0.5c-0.8-2.7-1.7-5.2-2.5-7.9c-0.9-3.1-1.9-6-2.9-9.1c-0.9-3.1-2-6.3-3.1-9.3
		c-0.1-0.4-0.3-0.7-0.4-1.2c-0.4,1.1-0.7,2.1-1.1,3.1c-1.1,3.1-2,6.1-2.9,9.2c-0.8,2.8-1.7,5.5-2.7,8.3c-0.8,2.3-1.5,4.7-2.3,6.9
		c-0.1,0.3-0.3,0.5-0.7,0.5s-0.5-0.1-0.7-0.5c-1.1-3.2-2.1-6.4-3.1-9.6c-0.5-1.5-0.9-2.9-1.5-4.4c-0.5-1.6-1.1-3.2-1.5-4.8
		c0.3-0.1,0.5-0.1,0.8-0.1s0.5-0.1,0.5-0.4c0-0.4,0.1-0.5,0.7-0.7c-0.4-0.1-0.5-0.1-0.8-0.3c-0.1,0-0.1,0-0.3-0.1
		c-0.1-0.4-0.1-0.5-0.5-0.5c-0.8,0-1.3-0.4-1.5-1.2c-0.7-2-1.2-4-1.9-6c-0.7-1.9-1.2-3.7-1.9-5.6c-0.3-0.9-0.3-0.8,0.5-0.8
		c0.1,0,0.1,0,0.3,0c0.1,0.1,0.4,0.1,0.5,0.1C79.1,5.4,80,5.4,80.8,5.4z"/>
	<path class="st0" d="M172.1,5.9c2.3,0,4.4,0.4,6.4,1.5c1.5,0.8,2.8,1.9,3.9,3.1c0.9,1.1,1.6,2.1,2.1,3.3c0.7,1.3,1.2,2.7,1.5,4.1
		c0.4,2,0.7,4.1,0.5,6.1c-0.1,2.4-0.7,4.8-1.6,7.1c-0.5,1.2-1.2,2.4-2,3.5c-0.9,1.3-2.1,2.4-3.5,3.5c-1.2,0.9-2.7,1.3-4,1.9
		c-0.8,0.3-1.7,0.3-2.5,0.4c-4,0-7.9,0-11.9,0c0-0.7,0-1.3,0-2c0-10.5,0-21.1,0-31.7c0-0.3,0-0.4,0-0.7
		C164.9,5.9,168.5,5.9,172.1,5.9z M165.3,35.8c2.7-0.1,5.3,0.1,8.1-0.1c1.3-0.1,2.5-0.7,3.6-1.2c1.5-0.8,2.5-2,3.3-3.3
		c1.3-2.3,2.1-4.7,2.1-7.3c0-0.9,0-1.7-0.1-2.7c-0.1-1.7-0.7-3.3-1.3-4.8c-0.8-1.6-2-3.1-3.6-4c-1.2-0.7-2.4-1.1-3.7-1.5
		c-0.5-0.1-0.9,0-1.5-0.3c-0.1-0.1-0.3-0.1-0.4-0.1c-2,0-4,0-6,0c-0.1,0-0.3,0-0.4,0.1l-0.1,0.1c-0.1,0.1-0.1,0.4-0.1,0.5
		c0,8,0,16,0,24C165.2,35.4,165.1,35.7,165.3,35.8z"/>
	<path class="st0" d="M10.9,5.9c1.7,0,3.3,0.4,4.8,1.3c1.7,1.2,2.8,2.9,3.3,4.9c0.1,0.8,0.3,1.5,0.3,2.3c0,1.7-0.3,3.3-1.1,4.8
		c-0.7,1.2-1.7,2-2.9,2.7l-0.1,0.1c0.8,0.3,1.5,0.7,2.3,0.9c0.4,0.1,0.7,0.4,0.9,0.7c0.4,0.4,0.7,0.8,1.1,1.1
		c0.4,0.3,0.5,0.7,0.8,1.1c0.1,0.4,0.3,0.8,0.5,1.1c0.7,0.8,0.5,1.9,0.8,2.8c0.1,0.5,0.3,1.1,0.1,1.5c-0.1,0.8-0.1,1.6-0.3,2.4
		c-0.5,2-1.5,3.9-3.3,5.1c-1.3,0.9-2.9,1.6-4.7,1.6c-3.3,0-6.7,0-10,0c-0.4,0-0.7-0.1-0.7-0.5c0-11.1,0-22.1,0-33.2
		c0-0.5,0.1-0.5,0.7-0.5C6,5.9,8.4,5.9,10.9,5.9z M6.8,10.5c0,3.3,0,6.8,0,10.1c0.8,0.3,1.6,0.1,2.4,0c0.4-0.1,0.9-0.1,1.5-0.3
		c1.2-0.1,2.3-0.5,3.1-1.3c1.1-1.1,1.3-2.5,1.3-4c0-0.9-0.3-1.9-0.8-2.7c-0.4-0.8-1.2-1.2-2-1.5c-0.5-0.1-1.1-0.1-1.6-0.4
		C9.5,10.2,8.1,10.3,6.8,10.5L6.8,10.5z M6.8,30.5c0,1.6,0,3.2,0,4.8c0,0.4,0.1,0.5,0.5,0.5c1.5,0,2.9,0,4.3,0
		c1.6,0,3.1-0.3,4.3-1.3c0.8-0.7,1.2-1.6,1.5-2.5c0.3-0.9,0.3-1.9,0-2.8c-0.1-1.1-0.7-1.9-1.5-2.5c-1.2-1.1-2.8-1.3-4.4-1.5
		c-1.3,0-2.8,0-4.3,0c-0.4,0-0.5,0.1-0.5,0.5C6.8,27.3,6.8,28.9,6.8,30.5z"/>
	<path class="st0" d="M146.5,5.9c1.2-0.1,2.4,0.1,3.5,0.5c0.8,0.3,1.6,0.8,2.3,1.3c1.2,0.9,2,2.1,2.4,3.6c0.4,1.1,0.7,2.1,0.5,3.2
		c0,0.5,0,1.2,0,1.7c-0.1,3.3-1.5,6-4.5,7.7c1.2,1.1,2.3,2.3,3.1,3.6c1.2,1.9,2.1,3.9,3.1,5.9c1.1,2.1,2.1,4.1,3.5,6.1
		c0.1,0.1,0.1,0.4,0.3,0.5c-1.6,0-3.2,0-4.8,0c-0.9-1.7-1.9-3.6-2.8-5.3c-1.1-2-2.1-4.1-3.5-6.1c-0.8-1.2-1.6-2.4-3.1-3.1
		c-0.9-0.4-2-0.4-2.9-0.4c-0.1,0-0.3,0.1-0.3,0.3c0,0.1,0,0.3,0,0.4c0,4.7,0,9.5,0,14.1c-1.3,0-2.7,0-4,0c0-1.7,0-3.3,0-5.1
		c0-9.6,0-19.2,0-28.8c0-0.1,0-0.3,0-0.4C141.7,5.9,144.1,5.9,146.5,5.9z M151.1,16.5c0.3-0.5,0.3-1.2,0-1.7
		c-0.1-0.4-0.1-0.7-0.3-1.1c-0.1-0.9-0.5-1.7-1.2-2.3s-1.3-1.1-2.4-1.1c-0.3,0-0.7,0-0.9-0.1c-0.1-0.1-0.3-0.1-0.4-0.1
		c-0.7,0-1.5,0-2.1,0c-0.1,0-0.4,0-0.4,0.1c0,3.6,0,7.1,0,10.7c0,0.1,0.1,0.1,0.3,0.1c0.9,0,2,0,2.9,0c0.1,0,0.3,0,0.3-0.1
		c0.4-0.1,0.8-0.1,1.2-0.3c0.9-0.4,1.7-0.8,2.3-1.7C150.7,18.1,150.9,17.4,151.1,16.5z"/>
	<path class="st0" d="M40.4,40.2c-0.4-0.8-0.9-1.6-1.3-2.4c-1.5-3.1-2.9-6.1-4.8-8.9c-0.7-1.1-1.3-2-2.4-2.7
		c-1.1-0.8-2.4-0.8-3.7-0.8c-0.1,0-0.3,0.1-0.3,0.3s0,0.3,0,0.4c0,4.4,0,8.9,0,13.3c0,0.3,0,0.5,0,0.8c-1.3,0-2.7,0-4,0
		c0-0.4,0-0.8,0-1.3c0-10.8,0-21.6,0-32.4c0-0.3,0-0.5,0-0.7c2.4,0,4.8,0,7.2,0c1.2-0.1,2.4,0.1,3.5,0.5c0.8,0.3,1.6,0.8,2.3,1.3
		c1.1,0.9,1.9,2.1,2.4,3.5c0.4,1.1,0.7,2,0.5,3.2c0,0.5,0,1.2,0,1.7c-0.1,3.3-1.5,6-4.4,7.6c0.3,0.4,0.7,0.7,0.9,0.9
		c-0.3,0.4-0.7-0.3-1.1,0.3c0.5,0,0.5,0.3,0.4,0.5c-0.1,0.3-0.1,0.4,0.3,0.4c-0.1,0.3-0.3,0.5-0.7,0.4c-0.3-0.1-0.4-0.4-0.7-0.3
		c0.8,0.8,1.9,1.3,2.8,2c-0.4,0.1-0.4,0.1-0.3,0.3c0.4,0.3,0.7,0.7,1.2,0.8c0.4,0.1,0.5,0.5,0.7,0.8c0.1,0.3,0.7,0,0.9,0.4
		c0.7,1.5,1.5,2.9,2.1,4.3c0.9,1.6,1.7,3.3,2.8,4.9c0.1,0.1,0.3,0.4,0.3,0.5C43.6,40.2,42,40.2,40.4,40.2z M27.9,20.9
		c0,0.1,0.1,0.1,0.3,0.1c0.9,0,2,0,2.9,0c0.1,0,0.3,0,0.3-0.1c0.4-0.1,0.8-0.1,1.2-0.3c0.9-0.4,1.7-0.9,2.3-1.7
		c0.4-0.7,0.8-1.5,0.9-2.3c0.3-0.5,0.3-1.2,0-1.7c-0.1-0.4-0.1-0.7-0.3-1.1c-0.1-0.9-0.5-1.7-1.2-2.3c-0.7-0.5-1.3-1.1-2.4-1.1
		c-0.3,0-0.7,0-0.9-0.1c-0.1-0.1-0.3-0.1-0.4-0.1c-0.7,0-1.5,0-2.1,0c-0.1,0-0.4,0-0.4,0.1C27.9,13.8,27.9,17.3,27.9,20.9z"/>
	<path class="st0" d="M133.9,40.2c-0.5-1.5-1.1-2.9-1.6-4.5c-0.7-1.7-1.2-3.5-1.9-5.2c-0.1-0.3-0.1-0.3-0.4-0.3c-3.6,0-7.3,0-10.9,0
		c-0.4,0-0.4,0.1-0.5,0.4c-1.1,3.2-2.1,6.3-3.2,9.5l0,0c-1.2,0-2.3,0-3.5,0c-0.1,0-0.5,0.1-0.5-0.3c0.3-1.3,0.8-2.5,1.2-3.9
		c0.5-1.3,0.9-2.8,1.5-4.1c1.5-4.4,3.1-8.8,4.5-13.2c0.9-2.9,2-5.7,2.9-8.7c0.4-1.3,0.9-2.7,1.3-4c0.1-0.3,0.1-0.4,0.5-0.4
		c0.8,0,1.5,0,2.3,0c0.3,0,0.4,0.1,0.4,0.4c0.9,2.8,2,5.5,2.9,8.3c1.3,3.7,2.7,7.5,4,11.2c1.5,4,2.8,8.1,4.3,12.1
		c0.3,0.8,0.7,1.6,0.8,2.5c-0.1,0.1-0.3,0.1-0.4,0.1C136.3,40.2,135.1,40.2,133.9,40.2z M120.3,25.7c0.1,0.1,0.3,0.1,0.5,0.1
		c2.4,0,4.8,0,7.2,0c0.1,0,0.4,0,0.5-0.1s0.1-0.3,0-0.4c-0.3-0.7-0.5-1.2-0.7-1.9c-1.1-3.1-2.1-6.1-3.2-9.2
		c-0.1-0.3-0.3-0.4-0.4-0.8c-1.1,3.2-2.1,6.3-3.1,9.3C120.8,23.8,120.4,24.7,120.3,25.7z"/>
	<path class="st0" d="M154.4,56.9c0-4.3,0-8.4,0-12.5c0-0.5,0.1-0.7,0.7-0.7c1.5,0,1.5,0,1.5,1.5c0,4.9,0,9.9,0,14.9
		c0,0.7,0,0.7-0.7,0.8c-0.9,0.1-1.5-0.3-2-0.9c-1.3-1.7-2.8-3.3-4.3-5.1c-1.3-1.6-2.7-3.3-4.1-4.9c-0.5-0.7-1.2-1.3-1.9-2.1
		c0,0.3,0,0.4,0,0.7c0,4,0,7.9,0,11.9c0,0.5-0.1,0.7-0.7,0.7c-0.5,0-1.2,0.3-1.5-0.1c-0.3-0.3-0.1-0.9-0.1-1.3c0-4.9,0-10,0-14.9
		c0-0.4,0.1-0.5,0.5-0.5c1.2-0.3,1.7,0.7,2.4,1.3c1.3,1.5,2.5,3.1,3.9,4.5c1.2,1.5,2.4,3.1,3.7,4.5C152.8,55,153.5,55.8,154.4,56.9z
		"/>
	<path class="st0" d="M122,52.2c-0.1,4.9-3.5,8.8-8.9,8.7c-4.7-0.1-8.5-3.7-8.3-9.2c0.1-4.7,3.5-8.3,8.5-8.4
		C118.4,43.4,122,47.1,122,52.2z M119.6,52.2c0-0.1,0-0.4,0-0.5c0-0.1-0.1-0.4-0.1-0.5c-0.3-1.7-1.1-3.2-2.5-4.3
		c-1.5-0.9-2.9-1.3-4.7-1.1c-2.1,0.4-3.7,1.5-4.5,3.5c-0.7,1.3-0.8,2.8-0.5,4.3c0.3,1.1,0.7,2.1,1.3,2.9c1.1,1.2,2.3,1.9,3.9,2.1
		c1.9,0.3,3.5-0.1,4.9-1.3C118.9,56.1,119.6,54.2,119.6,52.2z"/>
	<path class="st0" d="M126.9,49.4c0,1.6,0,3.2,0,4.9c0,2.8,2,4.4,4.4,4.4c0.9,0,1.7-0.1,2.5-0.5c1.7-0.7,2.3-2.1,2.3-3.7
		c0-3.5,0-6.8,0-10.3c0-0.4,0.1-0.7,0.5-0.5c0.5,0.1,1.3-0.3,1.7,0.1c0.4,0.4,0.1,1.1,0.1,1.6c0,2.9,0,6,0,8.9
		c0,1.1-0.3,2.1-0.7,3.1c-0.8,1.9-2.4,2.8-4.3,3.2c-1.6,0.4-3.2,0.4-4.8-0.1c-2.1-0.7-3.6-2.1-4.1-4.4c-0.1-0.7-0.3-1.2-0.3-1.9
		c0-3.3,0-6.7,0-10c0-0.5,0.1-0.8,0.7-0.7c0.4,0,0.8,0,1.2,0c0.4,0,0.4,0.1,0.4,0.4C126.8,45.9,126.9,47.7,126.9,49.4z"/>
	<path class="st0" d="M102.5,56.9c0,0.8,0,1.6,0,2.4c0,0.1,0,0.3-0.3,0.3c-1.3,0.7-2.7,1.2-4.1,1.3c-0.5,0-1.1,0.1-1.7,0.1
		c-3.5-0.1-6.4-1.9-7.7-5.3c-1.2-3.1-0.8-5.9,1.1-8.7c1.3-2,3.5-3.1,5.9-3.5c2.3-0.4,4.4,0.3,6.4,1.1c0.1,0.1,0.4,0.1,0.4,0.4
		c0,0.8,0,1.5,0,2.3c-0.8-0.4-1.6-0.9-2.5-1.2c-2.1-0.8-4.3-0.8-6.3,0.3c-1.7,0.9-2.7,2.4-3.1,4.3c-0.4,1.7-0.1,3.3,0.8,4.9
		c0.9,1.7,2.5,2.7,4.4,2.9C98.3,58.9,100.4,58.1,102.5,56.9C102.4,56.9,102.4,56.9,102.5,56.9z"/>
	<path class="st0" d="M164.3,53.3c0-2.3,0-4.7,0-6.9c0-0.4-0.1-0.5-0.5-0.5c-1.5,0-3.1,0-4.5,0c-0.4,0-0.5-0.1-0.5-0.5
		c0-0.5-0.3-1.3,0.1-1.6c0.3-0.3,1.1-0.1,1.6-0.1c3.7,0,7.3,0,11.1,0c0.4,0,0.7,0.1,0.7,0.5c0,0.4,0,0.7,0,1.1
		c0,0.5-0.1,0.7-0.7,0.5c-1.5,0-2.9,0-4.3,0c-0.5,0-0.7,0.1-0.7,0.7c0,4.5,0,9.1,0,13.6c0,0.5-0.1,0.7-0.7,0.7c-0.4,0-0.8,0-1.2,0
		s-0.5-0.1-0.5-0.5C164.3,57.9,164.3,55.7,164.3,53.3z"/>
	<path class="st0" d="M172.5,43.7c0.9,0,1.7,0,2.5,0c0.3,0,0.4,0.1,0.5,0.3c1.3,1.7,2.5,3.5,3.9,5.2c0.1,0.3,0.3,0.3,0.5,0
		c1.2-1.7,2.5-3.3,3.7-5.1c0.3-0.3,0.4-0.5,0.9-0.5c0.7,0,1.5,0,2.3,0c-0.5,0.8-1.2,1.6-1.7,2.3c-1.3,1.9-2.7,3.6-4,5.3
		c-0.1,0.3-0.3,0.5-0.3,0.8c0,2.7,0,5.3,0,8c0,0.4-0.1,0.5-0.5,0.5c-0.4,0-0.8,0-1.3,0c-0.4,0-0.5-0.1-0.5-0.5c0-2.5,0-5.1,0-7.6
		c0-0.7-0.1-1.2-0.5-1.6C176.1,48.5,174.4,46.2,172.5,43.7z"/>
	<path class="st1" d="M47.2,45.7c-0.1,0-0.3-0.1,0-0.3c0.3-0.1,0.5-0.3,0.9-0.5c-0.1-0.1-0.3-0.3-0.5-0.1c-0.4,0.3-0.9,0.5-1.5,0.4
		c-0.3-0.1-0.5,0.3-0.8,0.3c-0.1,0-0.3-0.1-0.1-0.3c0.7-0.8,0.7-1.7,0.9-2.5c0.9-2.3,2-4.5,3.7-6.4c0.3-0.3,0.4-0.5,0.7-0.8
		c0.3-0.3,0.1-0.7,0.7-0.7c0.7,0,0.9,0.3,1.2,0.8c0.1,0.1,0.1,0.3,0.3,0.3c0.1,0.1,0.3,0.3,0.4,0.4c0.1,0.9,0.4,2,0,2.9
		s-0.7,1.9-0.9,2.8c-0.1,0.3-0.4,0.5-0.5,0.9c-0.4,0.7-0.7,1.3-1.1,2c0,0.3-0.4,0.4-0.5,0.7c-0.3-0.1-0.7,0.1-0.8,0
		C48.3,45.4,47.7,45.5,47.2,45.7z"/>
	<path class="st1" d="M40,30.5c-0.3-0.4-0.8,0-0.9-0.4c-0.1-0.3-0.3-0.7-0.7-0.8c-0.5-0.1-0.8-0.5-1.2-0.8c-0.1-0.1-0.1-0.1,0.3-0.3
		c-0.8-0.7-1.9-1.2-2.8-2c0.4-0.1,0.5,0.3,0.7,0.3c0.4,0.1,0.4-0.1,0.7-0.4c-0.4,0-0.5-0.1-0.3-0.4c0.1-0.3,0.3-0.5-0.4-0.5
		c0.4-0.4,0.8,0.1,1.1-0.3c0.9,0,1.9,0,2.7,0c0.5,0.3,1.1,0.1,1.6,0.3c1.3,0.3,2.8,0.4,4.1,0.7c0.8,0.1,1.5,0.4,2.1,0.9
		c0.4,0.3,0.4,0.9,0,1.3c-0.1,0.1-0.4,0.3-0.5,0.4c-0.9,0.4-1.5,1.3-2.4,1.6c-0.7,0.1-1.3,0.1-1.9,0.1C41.3,30.2,40.5,29.8,40,30.5z
		"/>
	<path class="st1" d="M71.3,2.3c0,0.9,0,1.9-0.5,2.8c0.4,0,0.4-0.4,0.7-0.4c-0.4,2.3-2,3.9-3.3,5.6c-0.5,0.7-1.2,1.3-1.7,2
		c-0.1,0.1-0.3,0.4-0.5,0.5c-0.3,0.1-0.7,0.3-0.9-0.1l0,0c-0.9-0.7-0.9-1.6-0.8-2.7c0.7-2.5,1.7-4.8,3.3-6.8C67.7,3,68,2.9,68.3,2.9
		c0.5,0,0.7-0.4,0.9-0.8c0.1,0,0.4-0.3,0.5,0c-0.1,0.1-0.3,0.4-0.3,0.5s-0.1,0.3,0,0.4s0.3,0,0.3-0.1c0.3-0.3,0.7-0.4,0.9-0.7
		C70.9,2.1,71.1,2.3,71.3,2.3z"/>
	<path class="st1" d="M71.5,31.1c0.3,0,0.5,0.3,0.7,0.4c0.3,0.4,0.8,0.7,1.2,0.9c1.5,0.8,2.8,1.7,4,2.8c0.5,0.4,0.5,0.9,0.8,1.5
		c0.4,0.5,0.5,1.3,1.1,1.9s0.9,1.1,1.6,1.5c0,0.1,0.3,0.1,0.1,0.3c0,0.1-0.1,0-0.3,0c-0.5-0.4-1.1-0.8-1.6-1.2
		c0.4,0.7,0.9,0.9,1.6,1.3c0.1,0.1,0.4,0.1,0.5,0.4c-0.1,0.1-0.3-0.1-0.4,0c0.1,0.1,0,0.3,0,0.3c-0.4,0,0.3,0.3-0.1,0.3
		c-0.8,0-1.3-0.4-2-0.8c-0.7-0.4-1.3-0.7-2-0.9c-2-0.7-3.5-1.9-4.8-3.5c-0.1-0.1-0.4-0.4-0.5-0.5c-0.4-0.7-0.8-1.3-0.7-2.1
		c0.3-0.5,0.1-1.1,0.3-1.7C71.1,31.4,71.1,31.1,71.5,31.1z"/>
	<path class="st1" d="M52.9,14.6c0,0.8-0.3,1.1-1.1,1.1c-0.1,0-0.4,0-0.5,0c-0.1-0.3-0.4-0.1-0.7-0.3c-1.2-0.4-2-0.9-2.8-2
		c-0.5-0.8-1.1-1.6-1.9-2.3c-0.4-0.3-0.4-0.5-0.4-1.2c0.3,0.4,0.4,0.8,0.7,1.2c0-1.1-1.1-1.9-0.5-2.9c0.1,0,0.1,0.3,0.3,0.4
		c0.1-0.5,0-0.9-0.3-1.3s-0.4-0.8-0.3-1.2c0.1,0.4,0.3,0.7,0.4,1.1c0,0.1,0.1,0.3,0.3,0.1c0,0,0.1-0.1,0-0.1
		c-0.4-0.4-0.4-0.9-0.8-1.1c0-0.4-0.3-0.7-0.3-0.9c0.3,0.1,0.7,0.1,0.5,0.7c-0.1,0.3,0.1,0.4,0.4,0.8c-0.1-0.5-0.3-0.9,0.4-0.9
		l0.1-0.1c0-0.8,0.4-0.1,0.5-0.1c0.7,0.5,1.1,1.2,1.6,1.7c1.3,1.5,2.4,3.2,3.3,4.9C52.5,12.7,52.8,13.7,52.9,14.6z"/>
	<path class="st1" d="M64.1,48.5c-0.1-0.3,0.3-0.7-0.1-0.7c-0.3-0.1-0.7-0.1-1.1,0c-0.5,0.1-0.9,0.5-1.5,0.4c-0.1,0-0.3,0-0.3-0.1
		c0.1-0.5-0.1-0.3-0.4-0.3C60.3,47.9,60,47.5,60,47c0-0.8,0-1.7,0-2.5c0-0.9,0.1-1.9,0.1-2.7c0-1.1,0.5-2,0.9-2.9
		c0.3-0.7,0.8-0.8,1.3-0.3c1.2,1.2,1.9,2.5,2,4.1c0,0.9,0.1,1.9,0.3,2.8C64.9,46.5,64.7,47.4,64.1,48.5z"/>
	<path class="st2" d="M40.5,40.3c1.5,0,3.1,0,4.5,0c-0.8,0.1-1.7,0-2.5,0C41.9,40.5,41.2,40.5,40.5,40.3z"/>
	<path class="st1" d="M72.4,21.7c-0.1,0-0.3-0.1-0.3-0.1c0.1-0.7-0.4-0.9-0.7-1.3c-0.1-0.3,0-0.4,0.1-0.5c1.1-0.8,2.3-1.2,3.6-1.6
		c0.7-0.1,1.5-0.3,2-0.8c0.1-0.1,0.4-0.1,0.5-0.1s0.3,0,0.3,0.1c0.1,0.1-0.3,0.1-0.1,0.3c0.1,0.1,0.4,0,0.4-0.1
		c0.3-0.7,0.5-0.3,0.9,0c0.1,0.1,0.4,0.1,0.5,0c0.4,0,0.7,0,0.9,0.3c0.1,0.8,0.7,1.2,1.5,1.2c0.3,0,0.4,0.1,0.5,0.5
		c0,0.1,0.1,0,0.3,0.1c0.3,0,0.4,0.1,0.8,0.3c-0.5,0.1-0.7,0.3-0.7,0.7c0,0.3-0.3,0.4-0.5,0.4c-0.3,0-0.5,0-0.8,0.1
		c-0.4,0-0.8,0.1-1.2,0.4l-0.1,0.1c0,0.1,0.1,0.1,0.3,0.1c0.3-0.1,0.5-0.1,0.8,0.1c-2.1,0.5-4.3,0.8-6.4,0.7
		C74.1,22.1,73.3,21.7,72.4,21.7z"/>
	<path class="st1" d="M61.9,13c0.1,0.3,0.4,0.5,0.3,0.9c-0.1,0.3,0.1,0.4,0.4,0.4c1.9,0.4,3.5,1.3,5.1,2.3c0.8,0.4,1.5,1.1,2.3,1.7
		c0.8,0.7,1.2,1.6,1.7,2.4c0.3,0.4,0.3,1.1,0.4,1.6c0.1,0.8,0.3,1.6,0.1,2.5c-0.1,0.9-0.1,1.9-0.3,2.9c0,0.5-0.3,0.9-0.5,1.5
		c-0.1,0,0-0.4-0.3-0.3c-0.1,0-0.1,0.3,0,0.4c0.3,0.3,0.1,0.5-0.3,0.5c-0.1,0-0.3-0.1-0.5-0.1c0.4,0.3,0.4,0.7,0.4,0.8
		c-0.3,0.5-0.5,1.1-0.9,1.5c-0.3,0.4-0.8,0.7-0.9,1.2c0,0.1-0.1,0.3-0.3,0.3c-0.8,0.4-1.5,0.9-2.3,1.5c-0.9,0.5-1.9,0.8-2.8,1.1
		c-0.5,0.1-0.9,0.4-1.5,0.4c-0.9,0-1.9,0-2.8-0.3c-0.9-0.3-1.7-0.8-2.8-0.9c-0.7-0.1-1.1-0.8-1.6-1.2c-1.1-1.1-1.9-2.3-2.5-3.6
		c-0.8-1.5-1.2-2.9-1.3-4.5c-0.1-1.3-0.3-2.5,0-3.9c0.3-1.5,0.7-2.8,1.3-4.1c1.3-2.4,3.3-3.9,5.7-4.9c0.1,0,0.4,0,0.4-0.3
		c0.8,0,1.6,0,2.4-0.4C61.1,12.1,61.7,12.5,61.9,13z M62,14.3c0,0.7-0.1,1.1-0.7,1.2c-0.4,0.1-0.8,0.4-1.2,0.8
		c-0.3,0.3-0.4,0.5-0.7,0.8c-0.7,0.5-1.3,1.1-1.7,1.7c-0.9,1.5-1.2,3.2-1.1,4.8c0,1.1,0.3,2,0.5,3.1c0.7,2,1.9,3.5,3.9,4.1
		c1.1,0.4,2.1,0.4,3.3,0c1.5-0.5,2.7-1.5,3.5-2.8c0.5-0.9,1.1-1.7,1.2-2.8c0.1-0.4-0.1-0.9,0-1.3c0.1-1.1,0-2-0.1-3.1
		c-0.1-0.8-0.3-1.7-0.9-2.4c-0.4-0.4-0.8-0.9-1.3-1.3C65.3,16.1,63.7,15.3,62,14.3z"/>
	<path class="st0" d="M68.9,73.9c-1.2,0-2.3-0.4-2.9-1.2c-0.7-1.2-0.7-2.8,0.7-3.9c1.5-1.1,4-0.9,5.1,0.8c0.8,1.5,0.3,3.2-1.2,3.9
		C70,73.8,69.5,73.9,68.9,73.9z"/>
	<path class="st0" d="M144.5,68.2c0.9,0,2-0.1,2.9,0.1c1.2,0.4,1.9,1.1,2,2.3c0.3,1.6-0.7,3.2-2.5,3.3c-0.5,0-1.1,0-1.6,0
		c-1.1,0-0.9,0.1-0.9-0.9C144.5,71.4,144.5,69.8,144.5,68.2z"/>
	<path class="st0" d="M95.9,68.2c0.7,0,1.3-0.1,2,0.1c0.5,0.1,0.8,0.5,0.7,1.1c0,0.5-0.4,0.8-0.9,0.8c-0.4,0-0.8,0-1.1,0
		c-0.5,0-0.8-0.1-0.7-0.7C95.9,69,95.9,68.6,95.9,68.2z"/>
	<path class="st0" d="M172.5,72.1c0.3-0.9,0.7-1.7,1.1-2.5c0.1-0.3,0-0.7,0.3-0.7s0.3,0.4,0.4,0.7c0.4,0.9,0.8,1.7,1.2,2.7
		c-0.7,0-1.5,0-2.1,0C172.9,72.1,172.7,72.2,172.5,72.1z"/>
	<g>
		<path class="st3" d="M80.8,41.3c0,0.3,0,0.5,0,0.9c-0.1,0.8-0.1,1.6-0.4,2.4c-0.4,1.5-1.1,2.5-2.4,3.3c-0.5,0.3-1.1,0.7-1.6,0.8
			c-0.9,0.4-1.9,0.4-2.8,0.5c-1.3,0.1-2.8,0.4-4.1,0.3c-2-0.3-3.9,0.4-5.9,0.3c-1.6-0.1-2.9-0.5-3.9-2c-0.4-0.7-1.2-1.1-1.7-1.7
			c-0.4-0.4-0.8-0.8-1.3-1.2c-0.9-0.7-1.9-0.5-2.9-0.5c-0.9,0-1.7,0.4-2.5,0.5c-0.4,0-0.7,0.3-1.1,0.1c0.4-0.7,0.7-1.3,1.1-2
			c0.1-0.3,0.4-0.5,0.5-0.9c0.4-0.9,0.5-1.9,0.9-2.8s0.1-2,0-2.9c0-0.1-0.1-0.3-0.4-0.4c-0.1,0-0.3-0.1-0.3-0.3
			c-0.3-0.5-0.5-0.9-1.2-0.8c-0.4,0-0.4,0.5-0.7,0.7c-0.3,0.3-0.4,0.5-0.7,0.8c-1.6,1.9-2.8,4.1-3.7,6.4c-0.4,0.8-0.3,1.9-0.9,2.5
			c-0.1,0.1,0,0.3,0.1,0.3c0.3,0,0.5-0.3,0.8-0.3c0.7,0.3,1.1-0.1,1.5-0.4c0.3-0.1,0.3-0.1,0.5,0.1c-0.3,0.1-0.7,0.3-0.9,0.5
			c-0.3,0.1-0.1,0.1,0,0.3c-1.2,0.4-2.4,0.7-3.6,0.3c-0.8-0.3-1.6-0.5-2.1-1.1c-0.4-0.4-0.7-1.1-0.9-1.7c-0.3-0.8-0.5-1.7-0.8-2.5
			c-0.3-0.9-0.5-1.9-0.7-2.9c0.4,0.8,0.9,1.6,1.3,2.4l0.1,0.1c0.7,0.1,1.3,0.1,2,0c0.8,0,1.7,0.1,2.5,0c0.1,0,0.1,0,0-0.1
			c0-0.3-0.1-0.4-0.3-0.5c-1.1-1.6-1.9-3.2-2.8-4.9c-0.8-1.5-1.5-2.8-2.1-4.3c0.7-0.7,1.5-0.3,2.1-0.3c0.5,0,1.2,0,1.7-0.1
			c0.9-0.3,1.5-1.2,2.4-1.6c0.3-0.1,0.4-0.3,0.5-0.4c0.4-0.4,0.4-1.1,0-1.3c-0.7-0.4-1.3-0.8-2.1-0.9c-1.3-0.1-2.8-0.4-4.1-0.7
			c-0.5-0.1-1.1,0-1.6-0.3c0.1-0.8,0.3-1.6,0.4-2.4c0.1-1.5,0.3-2.9,0.4-4.3c0.1-1.6,0.5-3.3,0.9-4.9c0.1-0.9,0.3-1.7,0.4-2.7
			c0.3-1.2,0.5-2.5,1.1-3.6c0.1-0.4,0.7-0.5,1.1-0.7c0.9-0.1,1.3-0.4,1.6-0.9C44.4,5.1,44.7,5,45.1,5l0,0c0,0.4,0.4,0.7,0.3,0.9l0,0
			c-0.1,0.5,0.1,0.9,0.3,1.2c0.3,0.4,0.4,0.8,0.3,1.3c-0.3-0.1-0.1-0.4-0.3-0.4c-0.5,1.1,0.7,1.9,0.5,2.9c-0.1-0.4-0.4-0.7-0.7-1.2
			c0,0.7,0,0.9,0.4,1.2c0.8,0.7,1.3,1.5,1.9,2.3c0.8,0.9,1.7,1.6,2.8,2c0.3,0.1,0.5,0,0.7,0.3c-0.8,0.4-1.1,1.3-1.7,1.9
			c-0.3,0.3-0.4,0.5-0.5,0.9c-0.1,1.2-0.7,2.4-0.8,3.7c0,0.5-0.1,1.1-0.3,1.7c-0.1,0.5,0,1.2,0.3,1.7c0.4,0.9,0.3,2,0.8,2.9
			c0.3,0.5,0.1,1.2,0.8,1.6c0.1,0.1,0.3,0.3,0.3,0.4c0.5,0.8,0.9,1.7,1.7,2.4c0.5,0.5,1.1,1.1,1.7,1.6c0.3,0.3,0.7,0.5,1.1,0.8
			c0.5,0.3,0.9,0.8,1.6,0.9c0.5,0.1,0.8,0.7,1.5,0.5c0.1,0,0.3,0.1,0.4,0.3c0.1,0.1,0.3,0.3,0.4,0.1c0.4-0.1,0.8,0,1.1,0.1
			c0.8,0.1,1.5,0.4,2.3,0.4c0.1,0,0.3,0,0.4,0.1c0.1,0.3,0.4,0.1,0.7,0.1c0.9-0.3,1.9-0.4,2.8-0.4c1.2-0.1,2.1-0.5,3.1-1.1
			c0.5-0.4,0.9-0.8,1.3-1.3c0.3-0.4,0.5-1.1,0.9-1.5c0,0.8,0.3,1.5,0.7,2.1c0.1,0.1,0.3,0.4,0.5,0.5c1.3,1.6,2.8,2.9,4.8,3.5
			c0.7,0.3,1.3,0.5,2,0.9C79.3,40.9,80,41.3,80.8,41.3z M64.1,48.5c0.5-0.9,0.8-2,0.7-3.1c0-0.9-0.1-1.9-0.3-2.8
			c-0.1-1.6-0.8-3.1-2-4.1c-0.5-0.5-1.1-0.4-1.3,0.3c-0.4,0.9-0.9,1.9-0.9,2.9c0,0.9-0.1,1.7-0.1,2.7c0,0.8,0,1.7,0,2.5
			c0,0.7,0.3,0.9,0.8,0.8c0.3,0,0.5-0.3,0.4,0.3c0,0.1,0.1,0.1,0.3,0.1c0.5,0.1,1.1-0.3,1.5-0.4s0.7,0,1.1,0
			C64.4,47.8,64,48.2,64.1,48.5z"/>
		<path class="st3" d="M77.5,5.3c-0.8,0-0.8-0.1-0.5,0.8c0.7,1.9,1.2,3.7,1.9,5.6c0.7,2,1.3,4,1.9,6c-0.3-0.3-0.5-0.4-0.9-0.3
			c-0.1,0-0.4,0-0.5,0c-0.4-0.3-0.7-0.5-0.9,0c0,0-0.3,0.1-0.4,0.1c0-0.1,0.3-0.1,0.1-0.3c0-0.1-0.1-0.1-0.3-0.1
			c-0.3,0-0.4,0-0.5,0.1c-0.5,0.5-1.3,0.5-2,0.8c-1.3,0.4-2.4,0.8-3.6,1.6c-0.1-0.1-0.1-0.3-0.3-0.4c-0.5-1.1-1.3-1.9-2.1-2.7
			c-0.9-0.9-1.9-1.7-3.2-2.3c-1.3-0.5-2.7-1.3-4.1-1.5c-0.1-0.5-0.8-0.9-1.3-0.7c-0.8,0.4-1.6,0.4-2.4,0.4c-0.5,0.1-1.1,0.3-1.6,0.3
			c-1.3,0.3-2.5,0.8-3.6,1.6c-0.1-0.9-0.4-1.9-0.9-2.7c-1.1-1.7-2-3.5-3.3-4.9c-0.5-0.5-0.9-1.2-1.6-1.7c-0.1-0.1-0.5-0.7-0.5,0.1
			c0,0,0,0.1-0.1,0.1c-0.7,0-0.5,0.4-0.4,0.9c-0.3-0.3-0.5-0.5-0.4-0.8C45.7,5,45.3,5,45.1,4.9l0,0c0.1-0.1,0.1-0.3,0.1-0.4l0,0
			c0.1,0,0.3,0.1,0.4,0.1c0.4-0.3,0.9-0.3,1.5-0.5c1.7-0.7,3.5-1.1,5.2-1.5c1.6-0.3,3.2-0.5,4.9-0.9c0.7-0.1,1.3,0,2-0.1
			c2.1-0.1,4.3-0.1,6.4-0.1c1.2,0,2.5,0.3,3.7,0.3c0,0,0.1,0,0.1,0.1c-0.3,0.4-0.4,0.8-0.9,0.8c-0.3,0-0.5,0-0.8,0.4
			c-1.5,2.1-2.7,4.4-3.3,6.8c-0.4,1.3-0.4,2.3,0.5,2.9l0,0c0.3,0.4,0.5,0.3,0.9,0.1c0.3-0.1,0.4-0.3,0.5-0.5c0.5-0.7,1.2-1.3,1.7-2
			c1.3-1.7,2.9-3.2,3.3-5.6c-0.3,0-0.3,0.4-0.7,0.4c0.5-0.9,0.5-1.9,0.5-2.8C72.7,2.6,74,3,75.1,3.5c0.5,0.3,1.2,0.5,1.6,1.2
			c0.1,0.1,0.4,0.1,0.5,0.1C77.5,5,77.6,5.1,77.5,5.3z"/>
		<path class="st3" d="M78.7,57c0.1,0.1,0.1,0.3,0.1,0.3c0.1,0.1,0.7,0.3,0.5,0.5c-0.1,0.1-0.4,0.5-0.8,0.4c-0.4-0.1-0.7,0-0.9,0
			c-0.9,0.1-1.9-0.3-2.9-0.3c-1.6-0.1-3.2-0.1-4.8-0.1c-0.7,0-1.3,0-2,0s-1.3,0.1-2,0.3c-0.7,0.1-1.5,0.3-2.1,0.4
			c-0.5,0.1-1.1,0-1.6,0.4c-0.1,0.1-0.4,0-0.7,0c-0.3,0.1-0.7,0.1-0.9,0.4c-0.4,0.3-0.8,0-1.2,0.3c-0.5,0.4-1.2,0.5-1.9,0.7
			c-0.5,0.1-1.1,0.5-1.6,0.3c0,0.3-0.3,0.3-0.5,0.4c-0.1,0.1-0.4,0.3-0.4-0.1c0-0.1-0.3-0.1-0.3-0.1c-0.7,0.3-1.3,0-1.9-0.4
			c-0.4-0.3-0.5-0.9-0.7-1.5c-0.3-1.3,0-2.8,0.1-4.1c0-0.4-0.1-0.5-0.4-0.4c-2.4,0.3-4.7,1.1-6.8,1.9c-0.1,0-0.3,0.1-0.4,0.1
			c-0.7,0.7-1.6,0.9-2.5,1.5c-0.7,0.4-1.6,0.5-2.3,0.8c-0.5,0.1-1.1,0.3-1.3,0.8c-0.1,0.3-0.5,0.3-0.8,0.1c-0.7-0.1-1.2-0.4-1.7-0.7
			c-0.5-0.3-0.8-0.5-0.8-1.2c0-0.8,0-1.5,0.4-2.1c0.1-0.1,0.1-0.3,0-0.3c-0.1-0.3,0.1-0.5,0.3-0.5c0.5-0.1,0.8-0.7,1.2-0.9
			c1.6-1.6,3.2-3.2,5.3-4.1c2.1-0.9,4.4-1.7,6.8-2c0.9-0.1,1.9-0.3,2.8-0.3c2.1,0,4,0.5,5.7,1.7c0.8,0.7,1.3,1.5,1.3,2.5
			c0,0.7,0,1.3-0.3,2c0,0.1-0.1,0.3,0,0.3c0.1,0.1,0.1,0,0.3,0c1.6-0.5,3.3-0.8,5.1-1.1c1.1-0.1,2-0.4,3.1-0.4c1.3,0,2.5-0.1,3.9,0
			c0.9,0.1,1.7,0.1,2.7,0.3c2,0.4,3.7,1.2,5.2,2.7c0.4,0.4,0.4,0.8,0.5,1.2C79.3,56.9,79.2,57.4,78.7,57z"/>
		<path class="st3" d="M81.7,20.9c0.5,1.6,1.1,3.2,1.5,4.8c-0.3,0-0.3,0.3-0.1,0.4c0.1,0.3,0,0.4,0,0.5c-0.3,1.5-0.7,2.8-0.8,4.3
			c-0.1,0.8-0.3,1.7-0.5,2.5c-0.5,1.9-0.4,3.7-0.8,5.6c0,0.3,0.1,0.7,0,0.9c-0.7-0.4-1.1-0.9-1.6-1.5c-0.4-0.5-0.7-1.2-1.1-1.9
			c-0.3-0.4-0.3-1.1-0.8-1.5c-1.2-1.1-2.5-2-4-2.8c-0.5-0.3-0.9-0.5-1.2-0.9C72.1,31.3,72,31,71.6,31c0.4-1.3,0.4-2.7,0.7-3.9
			c0.3-1.2,0.4-2.4,0.4-3.7c0-0.7-0.1-1.2-0.3-1.9c0.9,0.1,1.7,0.5,2.7,0.5c2.1,0.1,4.3-0.1,6.4-0.7c-0.3-0.3-0.5-0.1-0.8-0.1
			c-0.1,0-0.1,0-0.3-0.1c0,0,0-0.1,0.1-0.1C80.9,21,81.2,20.9,81.7,20.9z"/>
		<path class="st3" d="M70.7,2.2c-0.3,0.1-0.7,0.4-0.8,0.7c0,0.1-0.1,0.3-0.3,0.1c-0.1-0.1,0-0.3,0-0.4c0.1-0.1,0.3-0.4,0.3-0.5
			C70.1,2.1,70.4,2.1,70.7,2.2z"/>
		<path class="st3" d="M80.8,40.2c-0.5-0.4-1.2-0.7-1.6-1.3C79.7,39.4,80.3,39.7,80.8,40.2L80.8,40.2z"/>
		<path class="st3" d="M45.3,6.1C45.7,6.2,45.7,6.7,46,7v0.1c-0.1,0.1-0.3,0-0.3-0.1C45.6,6.7,45.5,6.3,45.3,6.1L45.3,6.1z"/>
	</g>
</g>
</svg>
