<?xml version="1.0" encoding="utf-8"?>
<!-- Generator: Adobe Illustrator 18.0.0, SVG Export Plug-In . SVG Version: 6.00 Build 0)  -->
<!DOCTYPE svg PUBLIC "-//W3C//DTD SVG 1.1//EN" "http://www.w3.org/Graphics/SVG/1.1/DTD/svg11.dtd">
<svg version="1.1" id="Layer_1" xmlns="http://www.w3.org/2000/svg" xmlns:xlink="http://www.w3.org/1999/xlink" x="0px" y="0px"
	 viewBox="0 0 230.3 30" enable-background="new 0 0 230.3 30" xml:space="preserve">
<rect x="26.5" y="5.4" fill="#010101" width="10.2" height="4"/>
<rect x="6.7" y="5.4" fill="#010101" width="4" height="13.2"/>
<rect x="13.2" y="5.4" fill="#010101" width="4" height="19.4"/>
<rect y="5.4" fill="#010101" width="4" height="19.4"/>
<rect x="26.5" y="12" fill="#010101" width="4" height="12.8"/>
<rect x="19.9" y="5.4" fill="#010101" width="4" height="4"/>
<rect x="19.9" y="12" fill="#010101" width="4" height="12.8"/>
<g>
	<path d="M55.4,5.4v11.9c0,1.1,0.1,2.1,0.4,2.8c0.3,0.8,0.6,1.4,1.1,1.9c0.5,0.5,1.1,0.9,1.8,1.1c0.7,0.2,1.5,0.3,2.4,0.3
		c0.9,0,1.7-0.1,2.4-0.3c0.7-0.2,1.3-0.6,1.8-1.1s0.9-1.1,1.1-1.9c0.3-0.8,0.4-1.7,0.4-2.8V5.4h1.8v12.3c0,1-0.1,1.9-0.4,2.8
		c-0.3,0.9-0.7,1.7-1.3,2.3c-0.6,0.7-1.4,1.2-2.3,1.6c-0.9,0.4-2.1,0.6-3.4,0.6c-1.3,0-2.5-0.2-3.4-0.6c-0.9-0.4-1.7-0.9-2.3-1.6
		c-0.6-0.7-1-1.4-1.3-2.3c-0.3-0.9-0.4-1.8-0.4-2.8V5.4H55.4z"/>
	<path d="M73.5,10.7V14h0.1c0.4-1.1,1.1-2,2-2.6c0.9-0.6,2-0.9,3.3-0.8v1.7c-0.8,0-1.5,0.1-2.1,0.3c-0.6,0.2-1.2,0.6-1.6,1
		c-0.5,0.5-0.8,1-1.1,1.6c-0.3,0.6-0.4,1.3-0.4,2v7.4H72V10.7H73.5z"/>
	<path d="M82.2,5.4v8h0.1c0.2-0.5,0.4-0.9,0.8-1.3c0.3-0.4,0.7-0.7,1.1-1s0.9-0.5,1.4-0.6c0.5-0.1,1-0.2,1.5-0.2
		c1.1,0,2,0.2,2.8,0.6c0.8,0.4,1.4,0.9,2,1.6c0.5,0.7,0.9,1.5,1.2,2.3c0.3,0.9,0.4,1.8,0.4,2.8s-0.1,1.9-0.4,2.8
		c-0.3,0.9-0.6,1.7-1.2,2.3c-0.5,0.7-1.2,1.2-2,1.6C89,24.8,88.1,25,87,25c-1.1,0-2.1-0.3-3-0.8c-0.9-0.5-1.5-1.3-1.9-2.2H82v2.6
		h-1.6V5.4H82.2z M91.4,15.5c-0.2-0.7-0.4-1.3-0.8-1.9c-0.4-0.6-0.8-1-1.4-1.4c-0.6-0.4-1.3-0.5-2.1-0.5c-0.9,0-1.7,0.2-2.3,0.5
		c-0.6,0.4-1.1,0.8-1.5,1.4c-0.4,0.6-0.7,1.2-0.8,1.9c-0.2,0.7-0.3,1.4-0.3,2.1s0.1,1.4,0.3,2.1c0.2,0.7,0.4,1.3,0.8,1.9
		c0.4,0.6,0.9,1,1.5,1.4c0.6,0.4,1.4,0.5,2.3,0.5c0.8,0,1.5-0.2,2.1-0.5c0.6-0.4,1-0.8,1.4-1.4c0.4-0.6,0.6-1.2,0.8-1.9
		c0.2-0.7,0.3-1.4,0.3-2.1S91.5,16.2,91.4,15.5z"/>
	<path d="M96.3,12.9c0.3-0.6,0.7-1.1,1.2-1.5c0.5-0.4,1.1-0.7,1.7-0.8c0.7-0.2,1.4-0.3,2.2-0.3c0.6,0,1.2,0.1,1.8,0.2
		c0.6,0.1,1.2,0.3,1.6,0.7s0.9,0.8,1.2,1.4c0.3,0.6,0.5,1.3,0.5,2.3v7.4c0,0.7,0.3,1,1,1c0.2,0,0.4,0,0.5-0.1v1.4
		c-0.2,0-0.4,0.1-0.5,0.1c-0.2,0-0.3,0-0.6,0c-0.4,0-0.8-0.1-1-0.2c-0.3-0.1-0.5-0.3-0.6-0.5c-0.1-0.2-0.2-0.5-0.3-0.8
		s-0.1-0.6-0.1-1h-0.1c-0.3,0.5-0.6,0.9-0.9,1.2c-0.3,0.4-0.7,0.6-1.1,0.9c-0.4,0.2-0.8,0.4-1.3,0.5c-0.5,0.1-1.1,0.2-1.8,0.2
		c-0.6,0-1.3-0.1-1.8-0.2s-1.1-0.4-1.5-0.7c-0.4-0.3-0.8-0.8-1-1.3s-0.4-1.1-0.4-1.8c0-1,0.2-1.7,0.6-2.3c0.4-0.5,1-1,1.7-1.3
		c0.7-0.3,1.5-0.5,2.4-0.6s1.8-0.2,2.7-0.3c0.4,0,0.7-0.1,0.9-0.1s0.5-0.1,0.7-0.3c0.2-0.1,0.3-0.3,0.4-0.6c0.1-0.2,0.1-0.5,0.1-0.9
		c0-0.6-0.1-1-0.3-1.4c-0.2-0.4-0.5-0.7-0.8-0.9s-0.7-0.4-1.2-0.4c-0.4-0.1-0.9-0.1-1.4-0.1c-1.1,0-2,0.3-2.6,0.8
		c-0.7,0.5-1,1.3-1.1,2.5h-1.7C95.8,14.2,96,13.5,96.3,12.9z M104.8,17c-0.1,0.2-0.3,0.3-0.6,0.4c-0.3,0.1-0.6,0.2-0.8,0.2
		c-0.7,0.1-1.5,0.2-2.2,0.3s-1.5,0.2-2.1,0.4c-0.6,0.2-1.1,0.5-1.6,0.9c-0.4,0.4-0.6,0.9-0.6,1.6c0,0.4,0.1,0.8,0.3,1.1
		c0.2,0.3,0.4,0.6,0.7,0.9s0.6,0.4,1,0.6c0.4,0.1,0.8,0.2,1.2,0.2c0.6,0,1.3-0.1,1.9-0.3c0.6-0.2,1.1-0.5,1.6-0.9
		c0.4-0.4,0.8-0.8,1.1-1.4c0.3-0.5,0.4-1.2,0.4-1.8L104.8,17L104.8,17z"/>
	<path d="M111.6,10.7v2.4h0.1c0.3-0.8,0.9-1.5,1.7-2c0.8-0.5,1.7-0.8,2.7-0.8c1,0,1.8,0.1,2.4,0.4s1.2,0.6,1.6,1.1
		c0.4,0.5,0.7,1,0.8,1.7s0.2,1.4,0.2,2.2v9h-1.7v-8.7c0-0.6-0.1-1.1-0.2-1.7s-0.3-1-0.6-1.3c-0.3-0.4-0.6-0.7-1.1-0.9
		s-1-0.3-1.7-0.3c-0.7,0-1.3,0.1-1.8,0.4c-0.5,0.2-1,0.6-1.4,1c-0.4,0.4-0.7,0.9-0.9,1.5s-0.3,1.2-0.3,1.9v8.1h-1.7V10.7H111.6z"/>
	<path d="M135.1,5.4c0.9,0,1.6,0.1,2.3,0.4c0.7,0.3,1.3,0.7,1.8,1.1c0.5,0.5,0.9,1,1.1,1.7c0.3,0.6,0.4,1.3,0.4,2.1
		c0,1.1-0.2,2.1-0.7,2.9c-0.5,0.8-1.3,1.5-2.3,1.9v0.1c0.5,0.1,1,0.4,1.3,0.7c0.3,0.3,0.6,0.6,0.8,1.1c0.2,0.4,0.4,0.9,0.5,1.3
		c0.1,0.5,0.2,1,0.2,1.5c0,0.3,0,0.7,0.1,1.1c0,0.4,0,0.8,0.1,1.3c0,0.4,0.1,0.8,0.2,1.2s0.2,0.7,0.4,1h-4.2
		c-0.2-0.6-0.4-1.3-0.4-2.2c-0.1-0.8-0.1-1.7-0.2-2.4c-0.1-1-0.5-1.7-0.9-2.2c-0.5-0.5-1.2-0.7-2.3-0.7h-4.2v7.5h-4.2V5.4H135.1z
		 M133.6,14.1c1,0,1.7-0.2,2.2-0.6c0.5-0.4,0.7-1.1,0.7-2.1c0-0.9-0.2-1.6-0.7-2c-0.5-0.4-1.2-0.6-2.2-0.6h-4.6v5.4H133.6z"/>
	<path d="M148.4,5.4v19.3h-4.2V5.4H148.4z"/>
	<path d="M155.4,19.9c0.2,0.5,0.5,0.8,0.9,1.1s0.8,0.5,1.4,0.6c0.5,0.1,1.1,0.2,1.6,0.2c0.4,0,0.8,0,1.2-0.1
		c0.4-0.1,0.8-0.2,1.2-0.4s0.7-0.4,0.9-0.7c0.3-0.3,0.4-0.7,0.4-1.2c0-0.5-0.2-0.9-0.5-1.3s-0.8-0.6-1.3-0.8
		c-0.5-0.2-1.2-0.4-1.8-0.6c-0.7-0.2-1.4-0.3-2.1-0.5c-0.7-0.2-1.4-0.4-2.1-0.7c-0.7-0.3-1.3-0.6-1.8-1c-0.5-0.4-1-0.9-1.3-1.6
		c-0.3-0.6-0.5-1.4-0.5-2.3c0-1,0.2-1.8,0.6-2.6c0.4-0.7,1-1.3,1.7-1.8c0.7-0.5,1.5-0.8,2.3-1.1c0.9-0.2,1.7-0.4,2.6-0.4
		c1,0,2,0.1,2.9,0.3c0.9,0.2,1.8,0.6,2.5,1.1s1.3,1.1,1.7,1.9c0.4,0.8,0.6,1.7,0.6,2.8h-4.1c0-0.6-0.2-1.1-0.4-1.4
		c-0.2-0.4-0.5-0.7-0.8-0.9c-0.3-0.2-0.7-0.4-1.2-0.5c-0.4-0.1-0.9-0.1-1.4-0.1c-0.3,0-0.7,0-1,0.1c-0.3,0.1-0.7,0.2-0.9,0.4
		s-0.5,0.4-0.7,0.7c-0.2,0.3-0.3,0.6-0.3,1c0,0.4,0.1,0.7,0.2,0.9c0.1,0.2,0.4,0.5,0.9,0.6c0.4,0.2,1,0.4,1.8,0.6
		c0.7,0.2,1.7,0.5,2.9,0.8c0.4,0.1,0.9,0.2,1.5,0.4c0.6,0.2,1.3,0.5,1.9,0.9s1.2,1,1.6,1.7c0.5,0.7,0.7,1.6,0.7,2.7
		c0,0.9-0.2,1.7-0.5,2.5c-0.3,0.8-0.9,1.4-1.5,2c-0.7,0.5-1.5,1-2.5,1.3c-1,0.3-2.2,0.5-3.5,0.5c-1.1,0-2.1-0.1-3.1-0.4
		s-1.9-0.7-2.6-1.2c-0.8-0.6-1.4-1.3-1.8-2.1c-0.5-0.9-0.7-1.9-0.6-3.1h4.1C155.1,18.9,155.2,19.4,155.4,19.9z"/>
	<path d="M173.9,5.4v8l7.5-8h5.3l-7.5,7.6l8.3,11.7h-5.3l-5.8-8.7l-2.4,2.5v6.2h-4.2V5.4H173.9z"/>
	<path d="M191.1,5.4v17.7h10.8v1.6h-12.6V5.4H191.1z"/>
	<path d="M203.8,12.9c0.3-0.6,0.7-1.1,1.2-1.5c0.5-0.4,1.1-0.7,1.7-0.8c0.7-0.2,1.4-0.3,2.2-0.3c0.6,0,1.2,0.1,1.8,0.2
		c0.6,0.1,1.2,0.3,1.6,0.7s0.9,0.8,1.2,1.4c0.3,0.6,0.5,1.3,0.5,2.3v7.4c0,0.7,0.3,1,1,1c0.2,0,0.4,0,0.5-0.1v1.4
		c-0.2,0-0.4,0.1-0.5,0.1c-0.2,0-0.3,0-0.6,0c-0.4,0-0.8-0.1-1-0.2c-0.3-0.1-0.5-0.3-0.6-0.5c-0.1-0.2-0.2-0.5-0.3-0.8
		s-0.1-0.6-0.1-1h-0.1c-0.3,0.5-0.6,0.9-0.9,1.2c-0.3,0.4-0.7,0.6-1.1,0.9c-0.4,0.2-0.8,0.4-1.3,0.5c-0.5,0.1-1.1,0.2-1.8,0.2
		c-0.6,0-1.3-0.1-1.8-0.2c-0.6-0.2-1.1-0.4-1.5-0.7s-0.8-0.8-1-1.3s-0.4-1.1-0.4-1.8c0-1,0.2-1.7,0.6-2.3c0.4-0.5,1-1,1.7-1.3
		s1.5-0.5,2.4-0.6c0.9-0.1,1.8-0.2,2.7-0.3c0.4,0,0.7-0.1,0.9-0.1c0.3-0.1,0.5-0.1,0.7-0.3s0.3-0.3,0.4-0.6c0.1-0.2,0.1-0.5,0.1-0.9
		c0-0.6-0.1-1-0.3-1.4c-0.2-0.4-0.5-0.7-0.8-0.9c-0.3-0.2-0.7-0.4-1.2-0.4c-0.4-0.1-0.9-0.1-1.4-0.1c-1.1,0-2,0.3-2.6,0.8
		c-0.7,0.5-1,1.3-1.1,2.5h-1.7C203.3,14.2,203.5,13.5,203.8,12.9z M212.3,17c-0.1,0.2-0.3,0.3-0.6,0.4c-0.3,0.1-0.6,0.2-0.8,0.2
		c-0.7,0.1-1.5,0.2-2.2,0.3c-0.8,0.1-1.5,0.2-2.1,0.4s-1.1,0.5-1.6,0.9c-0.4,0.4-0.6,0.9-0.6,1.6c0,0.4,0.1,0.8,0.3,1.1
		c0.2,0.3,0.4,0.6,0.7,0.9s0.6,0.4,1,0.6s0.8,0.2,1.2,0.2c0.6,0,1.3-0.1,1.9-0.3c0.6-0.2,1.1-0.5,1.6-0.9c0.4-0.4,0.8-0.8,1.1-1.4
		c0.3-0.5,0.4-1.2,0.4-1.8L212.3,17L212.3,17z"/>
	<path d="M219.2,5.4v8h0.1c0.2-0.5,0.4-0.9,0.8-1.3s0.7-0.7,1.1-1s0.9-0.5,1.4-0.6c0.5-0.1,1-0.2,1.5-0.2c1.1,0,2,0.2,2.8,0.6
		c0.8,0.4,1.4,0.9,2,1.6c0.5,0.7,0.9,1.5,1.2,2.3c0.3,0.9,0.4,1.8,0.4,2.8s-0.1,1.9-0.4,2.8s-0.6,1.7-1.2,2.3
		c-0.5,0.7-1.2,1.2-2,1.6c-0.8,0.4-1.7,0.6-2.8,0.6c-1.1,0-2.1-0.3-3-0.8c-0.9-0.5-1.5-1.3-1.9-2.2H219v2.6h-1.6V5.4H219.2z
		 M228.3,15.5c-0.2-0.7-0.4-1.3-0.8-1.9s-0.8-1-1.4-1.4c-0.6-0.4-1.3-0.5-2.1-0.5c-0.9,0-1.7,0.2-2.3,0.5c-0.6,0.4-1.1,0.8-1.5,1.4
		c-0.4,0.6-0.7,1.2-0.8,1.9s-0.3,1.4-0.3,2.1s0.1,1.4,0.3,2.1s0.5,1.3,0.8,1.9c0.4,0.6,0.9,1,1.5,1.4c0.6,0.4,1.4,0.5,2.3,0.5
		c0.8,0,1.5-0.2,2.1-0.5c0.6-0.4,1-0.8,1.4-1.4c0.4-0.6,0.6-1.2,0.8-1.9c0.2-0.7,0.3-1.4,0.3-2.1S228.5,16.2,228.3,15.5z"/>
</g>
<g>
	<path fill="#3A79BD" d="M46.3,0v30h-1.6V0H46.3z"/>
</g>
</svg>
