<?xml version="1.0" encoding="utf-8"?>
<!-- Generator: Adobe Illustrator 19.2.1, SVG Export Plug-In . SVG Version: 6.00 Build 0)  -->
<!DOCTYPE svg PUBLIC "-//W3C//DTD SVG 1.1//EN" "http://www.w3.org/Graphics/SVG/1.1/DTD/svg11.dtd">
<svg version="1.1" id="Layer_1" xmlns="http://www.w3.org/2000/svg" xmlns:xlink="http://www.w3.org/1999/xlink" x="0px" y="0px"
	 viewBox="0 0 294 105" style="enable-background:new 0 0 294 105;" xml:space="preserve">
<style type="text/css">
	.st0{fill:#31AADE;}
	.st1{fill:#666666;}
</style>
<polygon class="st0" points="27.8,40.6 61.8,87.7 46.3,87.7 13.5,40.8 "/>
<path class="st0" d="M37.4,38.6c2.7-2.3,4.5-6.2,4.5-10v-0.5c0-6.9-5.5-12.5-12.4-12.5h-16V5.7H22c11.1,0,19.2,0.1,24.1,4.3
	c5.5,4.7,8.2,10.8,8.2,18.4c0,6-1.7,11.1-5.1,15.4c-1.1,1.4-3.3,3.5-4.7,4.6L37.4,38.6z"/>
<path class="st0" d="M70.8,62.5v25.1h-8.9V62.5H70.8z M70.8,47.9v9.9h-8.9v-9.9H70.8z"/>
<path class="st0" d="M93.5,69c-1.6-0.8-3.2-1.3-4.8-1.3c-0.8,0-1.5,0.2-2,0.5s-0.8,0.8-0.8,1.3c0,0.3,0,0.5,0.1,0.7s0.3,0.4,0.5,0.5
	c0.3,0.2,0.7,0.3,1.2,0.4s1.2,0.3,2.1,0.5c2.4,0.5,4.3,1.4,5.5,2.6c1.2,1.3,1.8,2.9,1.8,4.8c0,1.5-0.3,2.8-0.9,4s-1.4,2.2-2.4,3
	s-2.3,1.4-3.8,1.9c-1.5,0.4-3.1,0.7-4.8,0.7c-3.4,0-6.7-1-10-2.9l3.2-6.3c2.5,1.7,4.8,2.5,7.1,2.5c0.8,0,1.5-0.2,2-0.5
	s0.8-0.8,0.8-1.4c0-0.3,0-0.6-0.1-0.8c-0.1-0.2-0.3-0.4-0.5-0.6c-0.3-0.2-0.6-0.3-1.2-0.5c-0.5-0.1-1.2-0.3-2-0.5
	c-2.7-0.6-4.7-1.4-5.8-2.5c-1.1-1.1-1.6-2.6-1.6-4.5c0-1.4,0.3-2.7,0.8-3.8c0.5-1.1,1.3-2.1,2.3-2.9c1-0.8,2.2-1.4,3.6-1.8
	s2.9-0.6,4.6-0.6c2.8,0,5.5,0.5,8.1,1.6L93.5,69z"/>
<path class="st0" d="M110.6,47v24.6l9.3-9.1H132l-12.6,11.6l13.3,13.5h-12.4l-9.7-10.2v10.2h-8.9V47H110.6z"/>
<path class="st1" d="M136.3,64.4h5.4v2.2c1-1.1,1.9-1.8,2.7-2.2c0.8-0.4,1.8-0.6,2.9-0.6c2.6,0,4.7,1.1,6.2,3.4
	c1.7-2.3,4-3.4,6.9-3.4c5.2,0,7.9,3.2,7.9,9.5v14.4h-5.4v-13c0-2.2-0.3-3.8-0.8-4.7c-0.6-0.9-1.5-1.4-2.7-1.4
	c-1.5,0-2.6,0.6-3.2,1.7c-0.7,1.1-1,2.9-1,5.4v12h-5.4V74.8c0-4.1-1.2-6.2-3.6-6.2c-1.5,0-2.6,0.6-3.3,1.7s-1,2.9-1,5.4v12h-5.4
	V64.4H136.3z"/>
<path class="st1" d="M192.2,64.4h5.4v23.3h-5.4v-2.4c-2.2,2.1-4.6,3.1-7.1,3.1c-3.2,0-5.9-1.2-8-3.5c-2.1-2.4-3.1-5.3-3.1-8.9
	c0-3.5,1-6.4,3.1-8.7s4.7-3.5,7.8-3.5c2.7,0,5.1,1.1,7.3,3.3V64.4z M179.4,75.9c0,2.2,0.6,4,1.8,5.5c1.2,1.4,2.8,2.1,4.6,2.1
	c2,0,3.6-0.7,4.8-2.1s1.8-3.2,1.8-5.4c0-2.2-0.6-4-1.8-5.4s-2.8-2.1-4.8-2.1c-1.8,0-3.4,0.7-4.6,2.1C180,72.1,179.4,73.8,179.4,75.9
	z"/>
<path class="st1" d="M209.8,100.3h-5.4v-36h5.4v2.5c2.1-2.1,4.5-3.2,7.2-3.2c3.2,0,5.8,1.2,7.9,3.5c2.1,2.3,3.2,5.3,3.2,8.9
	c0,3.5-1,6.4-3.1,8.7c-2.1,2.3-4.7,3.5-7.8,3.5c-2.7,0-5.2-1.1-7.3-3.3L209.8,100.3L209.8,100.3z M222.6,76.1c0-2.2-0.6-4-1.8-5.5
	c-1.2-1.4-2.8-2.1-4.6-2.1c-2,0-3.6,0.7-4.8,2.1s-1.8,3.2-1.8,5.4c0,2.2,0.6,4,1.8,5.4s2.8,2.1,4.8,2.1c1.9,0,3.4-0.7,4.6-2.1
	C221.9,80,222.6,78.3,222.6,76.1z"/>
<path class="st1" d="M234.6,85c0-0.9,0.3-1.7,1-2.3s1.4-1,2.3-1c0.9,0,1.7,0.3,2.3,1s1,1.4,1,2.3s-0.3,1.7-1,2.4
	c-0.6,0.6-1.4,1-2.3,1c-0.9,0-1.7-0.3-2.4-1C234.9,86.7,234.6,85.9,234.6,85z"/>
<path class="st1" d="M248,54.7c0-0.9,0.3-1.8,1-2.4c0.7-0.7,1.5-1,2.5-1s1.8,0.3,2.5,1s1,1.5,1,2.5s-0.3,1.8-1,2.5s-1.5,1-2.5,1
	s-1.8-0.3-2.5-1C248.4,56.5,248,55.7,248,54.7z M254.2,64.4v23.3h-5.4V64.4H254.2z"/>
<path class="st1" d="M261.1,64.4h5.4v2.2c1.9-1.9,4-2.8,6.4-2.8c2.7,0,4.8,0.9,6.3,2.6c1.3,1.5,2,3.8,2,7.1v14.3h-5.4v-13
	c0-2.3-0.3-3.9-1-4.8c-0.6-0.9-1.8-1.3-3.4-1.3c-1.8,0-3.1,0.6-3.8,1.8c-0.7,1.2-1.1,3.2-1.1,6.1v11.2h-5.4V64.4z"/>
<path class="st0" d="M27.8,40.6"/>
</svg>
