<?xml version="1.0" standalone="no"?>
<!DOCTYPE svg PUBLIC "-//W3C//DTD SVG 20010904//EN"
 "http://www.w3.org/TR/2001/REC-SVG-20010904/DTD/svg10.dtd">
<svg version="1.0" xmlns="http://www.w3.org/2000/svg"
 width="700.000000pt" height="700.000000pt" viewBox="0 0 700.000000 700.000000"
 preserveAspectRatio="xMidYMid meet">
<metadata>
Created by potrace 1.11, written by Peter Selinger 2001-2013
</metadata>
<g transform="translate(0.000000,700.000000) scale(0.100000,-0.100000)"
fill="#000000" stroke="none">
<path d="M3420 6417 c-3 -3 -41 -7 -85 -11 -181 -13 -496 -86 -630 -145 -445
-197 -699 -410 -979 -821 -178 -262 -294 -588 -321 -905 -7 -71 -7 -261 -1
-325 10 -105 18 -175 21 -180 2 -3 6 -21 9 -40 62 -395 232 -798 634 -1510
196 -347 615 -988 902 -1378 252 -343 401 -542 428 -573 87 -99 231 -101 320
-4 40 44 76 87 107 130 26 37 101 136 115 153 58 67 454 628 607 857 51 77 97
147 103 155 120 179 389 621 495 815 183 332 300 579 409 860 44 113 94 256
100 291 2 10 9 39 16 64 14 51 14 50 29 145 31 190 29 350 -9 585 -33 203 -56
286 -132 475 -107 266 -273 514 -482 719 -135 133 -149 144 -239 211 -317 232
-668 373 -1047 422 -44 5 -366 14 -370 10z m325 -352 c94 -9 123 -14 232 -40
405 -96 767 -339 1016 -681 230 -317 346 -684 341 -1073 -9 -616 -327 -1164
-864 -1492 -402 -246 -928 -318 -1385 -191 -220 61 -419 159 -600 296 -101 76
-256 230 -323 321 -28 39 -56 75 -62 82 -22 26 -102 169 -144 256 -178 372
-218 843 -106 1243 42 149 118 326 182 422 15 24 28 46 28 49 0 19 155 209
238 292 187 187 386 316 631 410 81 30 233 73 301 85 19 3 51 8 70 12 106 18
309 23 445 9z"/>
<path d="M3815 5730 c-109 -24 -204 -103 -252 -207 -74 -162 -5 -372 149 -450
34 -18 160 -57 248 -77 38 -9 138 -60 198 -101 177 -118 346 -338 421 -545 7
-19 17 -44 21 -55 46 -112 64 -378 36 -530 -48 -259 -155 -466 -336 -647 -140
-140 -282 -226 -470 -286 -99 -31 -149 -41 -212 -42 -21 0 -38 -4 -38 -9 0 -9
109 -7 158 3 15 3 47 8 72 11 119 16 360 86 397 116 7 6 13 9 13 6 0 -4 29 9
64 28 266 141 466 333 623 600 13 23 56 107 58 115 1 3 12 28 24 55 33 73 88
270 96 345 4 36 9 74 11 85 6 25 6 217 0 266 -39 361 -172 652 -417 913 -154
165 -359 296 -584 375 -92 33 -212 46 -280 31z"/>
<path d="M3931 4728 c-152 -23 -254 -138 -258 -291 -2 -87 6 -110 84 -234 118
-189 156 -308 157 -493 1 -141 -13 -224 -45 -280 -5 -8 -18 -31 -29 -52 -26
-49 -115 -165 -159 -208 -102 -100 -200 -158 -331 -195 -71 -20 -102 -23 -214
-21 -144 3 -201 16 -331 71 -71 30 -77 32 -51 10 61 -49 286 -153 371 -171 11
-2 49 -10 85 -18 108 -24 332 -15 455 18 300 80 552 284 691 558 34 67 82 200
90 248 3 14 7 31 9 38 6 17 18 157 18 207 0 62 -12 164 -27 237 -35 160 -161
413 -245 491 -74 68 -173 99 -270 85z"/>
<path d="M3462 2785 c8 -8 108 -13 108 -6 0 5 -25 9 -56 9 -31 0 -54 -1 -52
-3z"/>
</g>
</svg>
